<svg width="16" height="17" viewBox="0 0 16 17" fill="none" xmlns="http://www.w3.org/2000/svg">
<path d="M1.49989 0.99707L1.58988 1.00507C1.68979 1.02332 1.78177 1.07156 1.85358 1.14338C1.92539 1.21519 1.97363 1.30717 1.99189 1.40707L1.99989 1.49707V3.70807C3.19652 2.35081 4.81794 1.43931 6.59941 1.12238C8.38088 0.805445 10.2172 1.1018 11.8085 1.96307C13.3998 2.82433 14.6522 4.19962 15.3611 5.86441C16.07 7.52921 16.1936 9.38515 15.7117 11.1292C15.2298 12.8733 14.1709 14.4026 12.7079 15.4673C11.2448 16.5319 9.46403 17.0692 7.65626 16.9913C5.8485 16.9134 4.12053 16.225 2.75447 15.0384C1.38842 13.8518 0.464965 12.2372 0.134885 10.4581C0.0280177 9.80378 -0.0155169 9.14071 0.00488516 8.47807C0.016368 8.34999 0.0767591 8.23125 0.17351 8.14654C0.270261 8.06182 0.395933 8.01764 0.524411 8.02318C0.652889 8.02872 0.774294 8.08354 0.863401 8.17626C0.952507 8.26898 1.00246 8.39247 1.00289 8.52107C0.98572 9.10835 1.02389 9.69594 1.11689 10.2761C1.4117 11.8664 2.24815 13.3056 3.48405 14.3489C4.71995 15.3923 6.27903 15.9755 7.89628 15.9994C9.51354 16.0232 11.0892 15.4863 12.3553 14.4799C13.6215 13.4735 14.5 12.0596 14.8417 10.4787C15.1833 8.89776 14.9669 7.2473 14.2293 5.80785C13.4917 4.36841 12.2784 3.22881 10.7956 2.58277C9.31279 1.93673 7.65202 1.82412 6.09557 2.26406C4.53913 2.70401 3.18307 3.66938 2.25788 4.99607H4.99789L5.08788 5.00507C5.20317 5.02594 5.30746 5.08664 5.38256 5.17656C5.45766 5.26648 5.4988 5.37991 5.4988 5.49707C5.4988 5.61423 5.45766 5.72766 5.38256 5.81758C5.30746 5.9075 5.20317 5.9682 5.08788 5.98907L4.99789 5.99707H1.49989L1.40989 5.98907C1.30984 5.97075 1.21777 5.92237 1.14594 5.85036C1.07411 5.77835 1.02595 5.68616 1.00788 5.58607L0.999885 5.49607V1.49607L1.00788 1.40607C1.02632 1.30635 1.07464 1.21459 1.14644 1.14297C1.21824 1.07135 1.31012 1.02326 1.40989 1.00507L1.49989 0.99707ZM7.49989 4.99707L7.58989 5.00507C7.68979 5.02332 7.78177 5.07156 7.85358 5.14338C7.92539 5.21519 7.97363 5.30717 7.99188 5.40707L7.99989 5.49707V9.00007H9.99988L10.0899 9.00807C10.2046 9.02949 10.3082 9.09036 10.3827 9.18012C10.4573 9.26988 10.4981 9.38289 10.4981 9.49957C10.4981 9.61625 10.4573 9.72926 10.3827 9.81902C10.3082 9.90878 10.2046 9.96965 10.0899 9.99107L9.99988 10.0001H7.49989L7.40988 9.99207C7.30998 9.97382 7.218 9.92558 7.14619 9.85376C7.07438 9.78195 7.02614 9.68997 7.00789 9.59007L6.99989 9.50007V5.49807L7.00789 5.40807C7.02614 5.30817 7.07438 5.21619 7.14619 5.14438C7.218 5.07256 7.30998 5.02432 7.40988 5.00607L7.49989 4.99807V4.99707Z" fill="#757575"/>
</svg>
