<?xml version="1.0" encoding="UTF-8"?>
<svg width="35px" height="21px" viewBox="0 0 35 21" version="1.1" xmlns="http://www.w3.org/2000/svg" xmlns:xlink="http://www.w3.org/1999/xlink">
    <!-- Generator: Sketch 61.2 (89653) - https://sketch.com -->
    <title>arrow-right</title>
    <desc>Created with Sketch.</desc>
    <g id="Page-1" stroke="none" stroke-width="1" fill="none" fill-rule="evenodd">
        <g id="arrow-right" fill="#1A2236" fill-rule="nonzero">
            <path d="M34.6044403,9.09252623 L25.9618682,0.397862384 C25.4345633,-0.132620795 24.5793808,-0.132620795 24.0520758,0.397862384 C23.5246629,0.928454245 23.5246629,1.78857387 24.0520758,2.31916573 L30.3893499,8.69463668 L1.35040189,8.69463668 C0.604655948,8.69463668 3.55271368e-15,11.0138296 3.55271368e-15,10.0531779 C3.55271368e-15,9.09252623 0.604655948,11.4117191 1.35040189,11.4117191 L30.3893499,11.4117191 L24.0522919,17.7871901 C23.524879,18.3177819 23.524879,19.1779016 24.0522919,19.7084934 C24.3158904,19.973572 24.6615932,20.106383 25.0071881,20.106383 C25.3527829,20.106383 25.6983778,19.973572 25.9620843,19.7084934 L34.6044403,11.0138296 C35.1318532,10.4832377 35.1318532,9.62311809 34.6044403,9.09252623 Z" id="Path"></path>
        </g>
    </g>
</svg>