<?xml version="1.0" encoding="UTF-8"?>
<svg width="220px" height="220px" viewBox="0 0 220 220" version="1.1" xmlns="http://www.w3.org/2000/svg" xmlns:xlink="http://www.w3.org/1999/xlink">
    <!-- Generator: Sketch 61.2 (89653) - https://sketch.com -->
    <title>arrow</title>
    <desc>Created with Sketch.</desc>
    <g id="Page-1" stroke="none" stroke-width="1" fill="none" fill-rule="evenodd">
        <g id="arrow" fill="#FFFFFF" fill-rule="nonzero">
            <path d="M109.576,219.151 C169.995,219.151 219.149,169.995 219.149,109.575 C219.149,49.156 169.995,0 109.576,0 C49.157,0 0.002,49.156 0.002,109.575 C0.002,169.995 49.157,219.151 109.576,219.151 Z M109.576,15 C161.724,15 204.15,57.426 204.15,109.575 C204.15,161.724 161.725,204.151 109.576,204.151 C57.428,204.151 15.003,161.724 15.003,109.574 C15.003,57.427 57.428,15 109.576,15 Z" id="Shape"></path>
            <path d="M94.861,156.507 C97.79,159.435 102.539,159.434 105.467,156.507 C108.397,153.577 108.397,148.829 105.466,145.899 L76.646,117.08 L160.103,117.072 C164.245,117.071 167.602,113.714 167.602,109.57 C167.602,105.428 164.244,102.072 160.102,102.072 L76.642,102.08 L105.469,73.255 C108.398,70.326 108.398,65.576 105.469,62.648 C104.004,61.184 102.085,60.451 100.165,60.451 C98.246,60.451 96.327,61.184 94.862,62.647 L53.233,104.275 C51.826,105.681 51.036,107.588 51.036,109.578 C51.036,111.568 51.827,113.474 53.234,114.883 L94.861,156.507 Z" id="Path"></path>
        </g>
    </g>
</svg>