<svg xmlns="http://www.w3.org/2000/svg" version="1.1" xmlns:xlink="http://www.w3.org/1999/xlink" xmlns:svgjs="http://svgjs.com/svgjs" width="512" height="512" x="0" y="0" viewBox="0 0 68 68" style="enable-background:new 0 0 512 512" xml:space="preserve" class=""><g><g id="_x31_44"><path d="m3.7597589 64.159729c1.446106.8579712 2.975647.8820801 4.6641846.9160156 4.1543159.0835114 3.4118233.0567169 50.4858398-.0067749 2.2163086-.0029907 4.7619629-.1419678 6.1101074-1.6959229.7739258-.8919678.9102783-2.085083.5749512-3.1782837.0390625-1.0869751-.5751953-2.4139404-1.2233887-3.6928101l-4.4970703-8.8901367c-.2358398-.4654541-.5476074-1.0794678-1.0435791-1.6074219.0833282-.307888-.0245361.7838211.2017822-9.5554199 1.6608887-.0457764 3.4101563-.1099243 5.2875977-.1945801.5717773-.0258179 1.0285645-.5014648 1.0230713-1.0738525l-.1517334-15.6270142.2648926-.0022583c.5950317-.0050011 1.0826111-.8012867.5683594-1.3261719l-3.3199463-3.3921509.0115967-7.3328247c.0244141.0023804.0488281.0115967.072998.0115967.3164063 0 .6113281-.2016602.7138672-.519043.1269531-.394043-.0888672-.8168945-.4833984-.9443359-1.7333984-.5620117-3.5029297-.5957031-5.7314453-.1118164-.4052734.0878906-.6621094.4873047-.5732422.8920898.0838623.3862915.4516602.6292114.8371582.574585l-.0063477 2.1588745-6.3259277-6.4634399c-.2711601-.2768087-.7462845-.3248773-1.0664063-.0058594l-9.5716553 9.5719604c-8.949707.0535889-18.9945068.0643311-26.9361572.0281372-3.7990084-.0291376-5.4582129 1.2214108-5.3056641 5.4746094.2782793 8.5717812.5777416 19.5286751.8488159 27.8745117-.4090576.2856445-.789917.6192017-1.1437378 1.0209961-1.3490323 1.5350115-5.2069405 9.8268053-5.9121093 11.5981447-.7869097 1.9735642-.374422 4.311039 1.6265869 5.4985962zm36.0069571-2.0928345c-4.4745445-.0002861-8.9859123-.027668-15.2392578-.1246948.0109806-.1026611.2120094-1.959259.2209473-2.3499146.016243-.7617302-.017355-.8310661.9785156-.8808594 4.7236328-.2353516 9.4980469-.1313477 14.2060547.3076172-.0516739 1.0287591-.1161194 1.8998376-.1662598 3.0478516zm13.701416-27.9882202v-9.2940063c0-.4140625-.3359375-.75-.75-.75h-6.6601563c-.4140625 0-.75.3359375-.75.75v9.3065186c-2.2402344-.0129395-4.4997559-.0350952-6.7988281-.0726318v-14.2363893l11.727417-.1004639c4.3018799.3536987 8.2850342.8900757 11.9013672 1.8414307l.0596924 12.4265747c-2.8948975.067688-5.8035889.1056519-8.7294922.1289673zm-18.2207031-14.2686157c.1006966 0 1.8624115-.0148315 1.7617188-.0150146v14.9608154c0 .3985252.2602272.7409821.9036865.7521973.5644989.5433884 1.2951126.5986443 2.1245117.6431885 4.7110596.2532959 8.8374023.3955078 13.3953857.3839722-.0171738 4.5434074-.0158882 4.1475296-.0163574 4.2533569-13.9231415.4758377-24.0652237.1134644-38.5664063-.1533203-.7324219-7.5981445-.7158203-16.2539063-.6835938-22.8095703 4.4264956-.1329842 15.7819433-.0086517 21.3450928-.090271l-.7943115.7943726c-.4701156.4690531-.139244 1.2802733.5302735 1.2802733zm11.5605469 14.2842407v-7.2056274c.1887207.0310669.3569336-.1594238.7198486-.2686157 1.7571945-.528471 3.4679832.3012428 3.9346924 3.1889648.1010742.6248207.1284752 1.0358715.4189453 4.0759277.0065918.0686035.0179443.1373291.0280762.2061157-1.6875.0088502-3.390625.0089112-5.1015625.0032349zm12.2451172-26.9292602c.7762451-.0844727 1.4848633-.0718384 2.1638184.019165l-.0097656 6.1186523-2.1656494-2.2127686zm-8.375-2.475586 13.0917969 13.3759766-26.6962891.2290039c4.180706-4.1808558 9.4268608-9.4271994 13.6044922-13.6049805zm-37.0419913 9.503418c7.5082998.0337524 16.8791504.0264893 25.4377441-.0198975l-2.0297852 2.0299072c-4.897007.1493492-19.4819965-.0405674-23.657959.151123-.3994141.0180664-.7138672.3457031-.7158203.7451172-.0351563 6.8530273-.0830078 16.2382813.7539063 24.3510742.0390625.3769531.3535156.6660156.7324219.6728516 14.991128.269886 25.4370422.6627808 40.0302734.1396484.3974609-.0141602.7148438-.3374023.7226563-.7353516.0057678-.2936325.0228386-4.900547.0231934-5.0014648.8474121-.0083008 1.7087402-.0206909 2.5983887-.0397949-.0681152 3.1182251-.1341553 6.6201172-.1552734 8.5977173-.7683105-.2540894-1.5947266-.2714844-2.2797852-.2727661-1.2232819-.0020523 5.8726273-.0283203-40.125-.0283203-1.5267944-.0033569-2.9724121.0339355-4.3045654.5025635-.2755489-8.569725-.5622454-18.9976254-.8272705-27.1695557-.1166879-3.2659664.7349567-3.9510717 3.7968749-3.9228515zm-10.1103515 45.0234375c.6528497-1.6370277 4.4878159-9.8457069 5.6455078-11.1625977 1.5289536-1.7366714 3.4425831-1.7500114 5.7998047-1.7709961 45.5583267 0 39.5787773.0273361 40.1230469.0283203 2.0105247.0043335 2.5341263.1856537 3.4423828 1.9780273l4.4970703 8.8911133c.3876953.7661133 1.1962891 2.359375 1.0537109 3.0966797-.1064453.5507813-.9599609.9716797-1.7246094 1.1816406-1.9105186.5257454-3.6294746.5764465-21.0187988.6087036-.10186-.993145.0262756-1.1506691.1193848-3.6995239.0136719-.3950195-.28125-.7329102-.6748047-.7724609-5.0097656-.5043945-10.1005859-.6342773-15.1367188-.3818359-1.8663921.0937347-2.3702717.8346176-2.4033203 2.347168-.0097694.5227585-.0390797.3499184-.2255859 2.3572998-6.6896362-.1118164-12.9866934-.2685547-18.1992188-.4080811-1.3879947-.0371055-1.953285-.64542-1.2978515-2.293457z" fill="#000000" data-original="#000000" class=""></path><path d="m50.7542648 15.3564453c.8710938-.480957 1.3369141-1.5571289 1.0830078-2.5024414-.5372353-1.9978523-3.6968422-2.2529221-4.4248047-.3046875-.3212891.859375-.0429688 1.8925781.6767578 2.5136719.7384263.6354084 1.8347588.7529907 2.6650391.293457z" fill="#000000" data-original="#000000" class=""></path><path d="m15.0189142 50.4946289c.0452003 0 1.5678358-.1221123 1.6230459-.1264648.4130859-.0327148.7207031-.394043.6884766-.8071289s-.3896484-.71875-.8076172-.6879883l-1.5615225.1240234c-.4130859.0322266-.7216797.3935547-.6894531.8066406.03125.3925782.359375.690918.7470703.690918z" fill="#000000" data-original="#000000" class=""></path><path d="m24.6448898 50.4326172h2.2509766c.4140625 0 .75-.3359375.75-.75s-.3359375-.75-.75-.75h-2.2509766c-.4140625 0-.75.3359375-.75.75s.3359375.75.75.75z" fill="#000000" data-original="#000000" class=""></path><path d="m33.8948898 50.4326172h1.7597656c.4140625 0 .75-.3359375.75-.75s-.3359375-.75-.75-.75h-1.7597656c-.4140625 0-.75.3359375-.75.75s.3359375.75.75.75z" fill="#000000" data-original="#000000" class=""></path><path d="m44.6448898 50.4326172h2.3779297c.4140625 0 .75-.3359375.75-.75s-.3359375-.75-.75-.75h-2.3779297c-.4140625 0-.75.3359375-.75.75s.3359375.75.75.75z" fill="#000000" data-original="#000000" class=""></path><path d="m54.1448898 50.4326172h1.0644531c.4140625 0 .75-.3359375.75-.75s-.3359375-.75-.75-.75h-1.0644531c-.4140625 0-.75.3359375-.75.75s.3359375.75.75.75z" fill="#000000" data-original="#000000" class=""></path><path d="m8.9573908 54.8774414c.0422735 0 1.5719013-.0993462 1.6142578-.1020508.4130859-.0268555.7265625-.3833008.6992188-.796875-.0263672-.4135742-.390625-.7255859-.796875-.7001953l-1.5644531.1005859c-.4130859.0268555-.7265625.3833008-.6992188.796875.0253906.3969727.3554687.7016602.7470703.7016602z" fill="#000000" data-original="#000000" class=""></path><path d="m18.5716476 54.9614258c.2313614.0035019-.83811-.012764 2.2626953.0341797.4091797 0 .7441406-.328125.75-.7387695.0058594-.4140625-.3242188-.7548828-.7382813-.7612305l-2.2509766-.0341797c-.4365234.0083008-.7558594.324707-.7617188.7387695s.3242189.7548828.7382814.7612305z" fill="#000000" data-original="#000000" class=""></path><path d="m27.0823898 54.340332c-.0058594.4140625.3242188.7548828.7382813.7612305.1811352.0027504-.6561642-.0100479 1.7714844.0268555.4091797 0 .7431641-.328125.75-.7387695.0058594-.4140625-.3242188-.7548828-.7382813-.7612305l-1.7597656-.0268555c-.3916016.0229492-.7539063.3242188-.7617188.7387695z" fill="#000000" data-original="#000000" class=""></path><path d="m38.5696945 55.2646484c.2443428.0037003-.8851357-.0134888 2.3896484.0361328.4091797 0 .7441406-.328125.75-.7387695.0058594-.4140625-.3242188-.7548828-.7382813-.7612305l-2.3779297-.0361328c-.4003906.0151367-.7548828.3242188-.7617188.7387695-.0058592.4140626.3242189.7548829.7382814.7612305z" fill="#000000" data-original="#000000" class=""></path><path d="m47.3304367 54.6469727c-.0068359.4140625.3242188.7553711.7382813.7617188.1100388.0017052-.3986168-.0062408 1.0761719.0166016.4091797 0 .7431641-.328125.75-.7382813.0068359-.4140625-.3242188-.7553711-.7382813-.7617188l-1.0644531-.0166016c-.3984375.0258789-.7539063.3242188-.7617188.7382813z" fill="#000000" data-original="#000000" class=""></path><path d="m54.5247726 54.6484375c.0595703.3681641.3779297.6303711.7392578.6303711.178688 0 .7952423-.1656456 1.7714844-.0229492.4013672.0600586.7910156-.2241211.8496094-.6342773.0595703-.4101563-.2246094-.7905273-.6347656-.8500977-.6962891-.1010742-1.40625-.0961914-2.1044922.0170898-.4091797.065918-.6875.4506836-.6210938.8598633z" fill="#000000" data-original="#000000" class=""></path><path d="m30.9466476 22.8730469h-12.84375c-.4140625 0-.75.3359375-.75.75s.3359375.75.75.75h12.84375c.4140625 0 .75-.3359375.75-.75s-.3359375-.75-.75-.75z" fill="#000000" data-original="#000000" class=""></path><path d="m29.0198898 28.8730469h-10.9208984c-.4140625 0-.75.3359375-.75.75s.3359375.75.75.75h10.9208984c.4140625 0 .75-.3359375.75-.75s-.3359375-.75-.75-.75z" fill="#000000" data-original="#000000" class=""></path><path d="m25.5247726 34.1230469h-7.3330078c-.4140625 0-.75.3359375-.75.75s.3359375.75.75.75h7.3330078c.4140625 0 .75-.3359375.75-.75s-.3359375-.75-.75-.75z" fill="#000000" data-original="#000000" class=""></path></g></g></svg>
