<?xml version="1.0" encoding="UTF-8"?>
<svg width="20px" height="20px" viewBox="0 0 20 20" version="1.1" xmlns="http://www.w3.org/2000/svg" xmlns:xlink="http://www.w3.org/1999/xlink">
    <!-- Generator: Sketch 62 (91390) - https://sketch.com -->
    <title>call-answer_clr</title>
    <desc>Created with Sketch.</desc>
    <g id="Page-1" stroke="none" stroke-width="1" fill="none" fill-rule="evenodd">
        <g id="Contact" transform="translate(-244.000000, -851.000000)" fill="#FD8B3F" fill-rule="nonzero">
            <g id="Group-10" transform="translate(100.000000, 474.000000)">
                <g id="Group-12" transform="translate(144.000000, 375.000000)">
                    <g id="call-answer_clr" transform="translate(0.000000, 2.000000)">
                        <path d="M19.5516365,15.8190362 L16.4629485,12.7230042 C15.847739,12.1088771 14.8289403,12.1275359 14.1922988,12.7658503 L12.6362045,14.3251249 C12.5378928,14.2708187 12.4361336,14.2140937 12.3291456,14.1539134 C11.3464883,13.6082018 10.0015544,12.8602384 8.58629119,11.4407318 C7.16683348,10.0182306 6.41987144,8.6681761 5.87372727,7.68265879 C5.81609627,7.57825027 5.76087854,7.47758503 5.70635031,7.38198761 L6.75071816,6.33680829 L7.26416838,5.82156121 C7.90178667,5.18232542 7.91936901,4.16150617 7.30559604,3.54559384 L4.216908,0.44921629 C3.60313504,-0.165832203 2.5838766,-0.147173428 1.94625831,0.492062364 L1.07576024,1.36954306 L1.09954811,1.39321207 C0.807658324,1.76650273 0.563746488,2.19703668 0.382234712,2.66131766 C0.214915214,3.10325419 0.110742739,3.52497705 0.063109544,3.94756374 C-0.344731731,7.33631968 1.20033052,10.4333883 5.39343067,14.6360469 C11.1895688,20.444915 15.8604949,20.0060883 16.0620022,19.9846652 C16.5008712,19.9320866 16.9214682,19.8269871 17.3489029,19.660613 C17.8081122,19.4808207 18.2373855,19.2367018 18.6096025,18.9447841 L18.6286213,18.9617152 L19.5104961,18.096213 C20.1467929,17.4570924 20.1651222,16.4359276 19.5516365,15.8190362 Z" id="Path"></path>
                    </g>
                </g>
            </g>
        </g>
    </g>
</svg>