<?xml version="1.0" encoding="UTF-8"?>
<svg width="15px" height="15px" viewBox="0 0 15 15" version="1.1" xmlns="http://www.w3.org/2000/svg" xmlns:xlink="http://www.w3.org/1999/xlink">
    <!-- Generator: Sketch 62 (91390) - https://sketch.com -->
    <title>clock</title>
    <desc>Created with Sketch.</desc>
    <g id="Page-1" stroke="none" stroke-width="1" fill="none" fill-rule="evenodd">
        <g id="Listing" transform="translate(-718.000000, -566.000000)" fill="#7B7F8A">
            <g id="Group-26" transform="translate(100.000000, 474.000000)">
                <g id="Group-4" transform="translate(371.000000, 19.000000)">
                    <g id="clock" transform="translate(247.259542, 73.837209)">
                        <path d="M13.6207474,4.32325123 C12.872776,2.58145192 11.6017393,1.3146909 9.84335985,0.565618789 C8.96450623,0.19123324 8.04376381,0 7.0818512,0 C6.12010086,0 5.20615059,0.189427187 4.3282706,0.565618789 C2.58444903,1.31269961 1.30777924,2.57865023 0.558486529,4.32325123 C0.183017232,5.19728832 0,6.11298041 0,7.07361543 C0,8.03443569 0.183017232,8.95772246 0.558486529,9.83194478 C1.30777924,11.5765458 2.5846113,12.8500911 4.3282706,13.5973571 C5.20631286,13.9735487 6.12007768,14.1627907 7.0818512,14.1627907 C8.04362472,14.1627907 8.96450623,13.9715575 9.84322076,13.5973571 C11.6016002,12.8482619 12.872637,11.573582 13.6207706,9.83194478 C13.9973758,8.95492076 14.1870229,8.03443569 14.1870229,7.07361543 C14.1870229,6.11298041 13.9975381,5.2002521 13.6207474,4.32325123 Z M12.3566192,10.1239332 C11.8133775,11.0533735 11.0691538,11.7907212 10.1318408,12.3358861 C9.20020419,12.8778471 8.17941817,13.1511628 7.08228296,13.1511628 C6.2575036,13.1511628 5.47049177,12.9926875 4.72124745,12.6679982 C3.97202575,12.3434669 3.3251382,11.9168201 2.78399972,11.3771152 C2.24286124,10.8372524 1.81215318,10.1855951 1.49008894,9.43685359 C1.16897454,8.6908421 1.01335878,7.89681874 1.01335878,7.07382581 C1.01335878,5.97911909 1.28295556,4.96590621 1.82314421,4.03903798 C2.36525515,3.10878545 3.10963718,2.37064808 4.0403239,1.82706258 C4.97085233,1.28349963 5.98501206,1.01162791 7.08212466,1.01162791 C8.17941817,1.01162791 9.20002326,1.28510153 10.1316824,1.82706258 C11.0689955,2.37224998 11.8116135,3.11036479 12.3564609,4.03901541 C12.9013083,4.96750811 13.1736641,5.97911909 13.1736641,7.07380325 C13.1736641,8.16853252 12.9030949,9.18864937 12.3566192,10.1239332 Z" id="Shape" fill-rule="nonzero"></path>
                        <path d="M6.91869509,7.31799281 L6.91869509,3.45274258 C6.91869509,3.22144617 6.71829026,3.03488372 6.48825825,3.03488372 C6.27312853,3.03488372 6.08015267,3.22144617 6.08015267,3.45274258 L6.08015267,7.37766781 C6.08015267,7.38516064 6.09503279,7.41508734 6.09503279,7.43738742 C6.08015267,7.57172309 6.11736406,7.68364718 6.20633431,7.7732712 L8.42511316,10.0043048 C8.57358171,10.1536038 8.84807668,10.1536038 8.99643435,10.0043048 C9.16705677,9.8327057 9.15583569,9.58372533 8.99643435,9.42229507 L6.91869509,7.31799281 Z" id="Path"></path>
                    </g>
                </g>
            </g>
        </g>
    </g>
</svg>