<?xml version="1.0" encoding="UTF-8"?>
<svg width="452px" height="451px" viewBox="0 0 452 451" version="1.1" xmlns="http://www.w3.org/2000/svg" xmlns:xlink="http://www.w3.org/1999/xlink">
    <!-- Generator: Sketch 62 (91390) - https://sketch.com -->
    <title>cross</title>
    <desc>Created with Sketch.</desc>
    <g id="Page-1" stroke="none" stroke-width="1" fill="none" fill-rule="evenodd">
        <g id="cross" transform="translate(-13.000000, -13.000000)" fill="#FFFFFF" fill-rule="nonzero">
            <path d="M514.4,208 L-36.4,208 C-53.291,208 -67,221.709 -67,238.601 C-67,255.493 -53.291,269.201 -36.4,269.201 L514.4,269.201 C531.291,269.201 545,255.492 545,238.601 C545,221.71 531.291,208 514.4,208 Z" id="Shape-Copy" transform="translate(239.000000, 238.600500) rotate(-315.000000) translate(-239.000000, -238.600500) "></path>
            <path d="M514.4,208 L-36.4,208 C-53.291,208 -67,221.709 -67,238.601 C-67,255.493 -53.291,269.201 -36.4,269.201 L514.4,269.201 C531.291,269.201 545,255.492 545,238.601 C545,221.71 531.291,208 514.4,208 Z" id="Shape-Copy-2" transform="translate(239.000000, 238.600500) scale(-1, 1) rotate(-315.000000) translate(-239.000000, -238.600500) "></path>
        </g>
    </g>
</svg>