<svg xmlns="http://www.w3.org/2000/svg" version="1.1" xmlns:xlink="http://www.w3.org/1999/xlink" xmlns:svgjs="http://svgjs.com/svgjs" width="512" height="512" x="0" y="0" viewBox="0 0 64 64" style="enable-background:new 0 0 512 512" xml:space="preserve" class=""><g><g id="Local_seo" data-name="Local seo"><path d="M55,2H9A1,1,0,0,0,8,3V41a1,1,0,0,0,1,1h9.60425a37.97259,37.97259,0,0,0,5.94983,9.0285C21.045,52.11267,19,53.915,19,56c0,3.42041,5.58887,6,13,6s13-2.57959,13-6c0-2.078-2.03461-3.87683-5.52515-4.96222A37.385,37.385,0,0,0,45.41577,42H55a1,1,0,0,0,1-1V3A1,1,0,0,0,55,2ZM10,4H54V14H10ZM32.00293,55.687C29.32129,53.33984,19,43.749,19,35.21045a13.00168,13.00168,0,1,1,26,0C45,43.84619,34.6875,53.35791,32.00293,55.687ZM43,56c0,1.88818-4.7041,4-11,4s-11-2.11182-11-4c0-1.00818,1.60083-2.43018,5.04791-3.30035a58.21679,58.21679,0,0,0,5.31976,5.07526,1.00027,1.00027,0,0,0,1.26074.00293,57.01643,57.01643,0,0,0,5.3512-5.07147C41.40759,53.57794,43,54.99622,43,56Zm3.17963-16A15.5368,15.5368,0,0,0,47,35.21045a15.00146,15.00146,0,1,0-30,0A15.3725,15.3725,0,0,0,17.8324,40H10V16H54V40Z" fill="#000000" data-original="#000000" class=""></path><path d="M49,6a3,3,0,1,0,3,3A3.00328,3.00328,0,0,0,49,6Zm0,4a1,1,0,1,1,1-1A1.0013,1.0013,0,0,1,49,10Z" fill="#000000" data-original="#000000" class=""></path><path d="M41,6a3,3,0,1,0,3,3A3.00328,3.00328,0,0,0,41,6Zm0,4a1,1,0,1,1,1-1A1.0013,1.0013,0,0,1,41,10Z" fill="#000000" data-original="#000000" class=""></path><path d="M27,6H13a1,1,0,0,0-1,1v4a1,1,0,0,0,1,1H27a1,1,0,0,0,1-1V7A1,1,0,0,0,27,6Zm-1,4H14V8H26Z" fill="#000000" data-original="#000000" class=""></path><path d="M32,27a7,7,0,1,0,7,7A7.00786,7.00786,0,0,0,32,27Zm0,12a5,5,0,1,1,5-5A5.00589,5.00589,0,0,1,32,39Z" fill="#000000" data-original="#000000" class=""></path></g></g></svg>
