<?xml version="1.0" encoding="UTF-8"?>
<svg width="16px" height="21px" viewBox="0 0 16 21" version="1.1" xmlns="http://www.w3.org/2000/svg" xmlns:xlink="http://www.w3.org/1999/xlink">
    <!-- Generator: Sketch 61.2 (89653) - https://sketch.com -->
    <title>location</title>
    <desc>Created with Sketch.</desc>
    <g id="Page-1" stroke="none" stroke-width="1" fill="none" fill-rule="evenodd">
        <g id="New-Projects" transform="translate(-113.000000, -949.000000)" fill="#324062" fill-rule="nonzero">
            <g id="Group-14" transform="translate(100.000000, 484.000000)">
                <g id="grp1">
                    <g id="location" transform="translate(21.000000, 475.500000) scale(-1, 1) translate(-21.000000, -475.500000) translate(13.000000, 465.000000)">
                        <path d="M8,0 C3.58877618,0 0,3.41176588 0,7.60537255 C0,12.8097695 7.1592163,20.4501284 7.46402627,20.7728398 C7.75032762,21.0759866 8.2501901,21.0754534 8.53597373,20.7728398 C8.8407837,20.4501284 16,12.8097695 16,7.60537255 C16,3.41176588 12.4111807,0 8,0 Z M8,11.4318479 C5.78060369,11.4318479 3.97504139,9.7153009 3.97504139,7.60537255 C3.97504139,5.4954442 5.78064683,3.7789382 8,3.7789382 C10.2193532,3.7789382 12.0249155,5.49548521 12.0249155,7.60541356 C12.0249155,9.71534192 10.2193532,11.4318479 8,11.4318479 Z" id="Shape"></path>
                    </g>
                </g>
            </g>
        </g>
    </g>
</svg>