<?xml version="1.0" encoding="UTF-8"?>
<svg width="24px" height="19px" viewBox="0 0 24 19" version="1.1" xmlns="http://www.w3.org/2000/svg" xmlns:xlink="http://www.w3.org/1999/xlink">
    <!-- Generator: Sketch 61.2 (89653) - https://sketch.com -->
    <title>message</title>
    <desc>Created with Sketch.</desc>
    <g id="Page-1" stroke="none" stroke-width="1" fill="none" fill-rule="evenodd">
        <g id="Home" transform="translate(-1393.000000, -870.000000)" fill="#FFFFFF" fill-rule="nonzero">
            <g id="Group-17" transform="translate(1369.000000, 700.000000)">
                <g id="message" transform="translate(24.000000, 170.000000)">
                    <path d="M2.3035264,5.81275288 C2.60712317,6.02699755 3.52227604,6.66330468 5.04903191,7.72134589 C6.57583469,8.7793871 7.74547032,9.59405163 8.55798572,10.1653864 C8.64725405,10.2280132 8.83690821,10.3641503 9.12704202,10.5739852 C9.41722274,10.783961 9.65833636,10.9536397 9.85019526,11.0830685 C10.0421949,11.2124503 10.2743019,11.3575944 10.5467509,11.5182662 C10.8191061,11.6787972 11.0758406,11.7995473 11.3169073,11.8794844 C11.5580209,11.9600783 11.7812152,12 11.986537,12 L12,12 L12.0135099,12 C12.2188317,12 12.4421198,11.9600314 12.6832335,11.8794844 C12.9242064,11.7995473 13.1811753,11.6786565 13.453296,11.5182662 C13.7255573,11.3574067 13.9576644,11.2124034 14.149664,11.0830685 C14.3416636,10.9536397 14.5825896,10.783961 14.8728642,10.5739852 C15.1629511,10.3639626 15.3528398,10.2280132 15.4421081,10.1653864 C16.2633955,9.59405163 18.352875,8.14303306 21.7098896,5.81247141 C22.361647,5.35728946 22.9061697,4.80805001 23.3435986,4.16512836 C23.7813559,3.52248818 24,2.8483235 24,2.14300961 C24,1.55361394 23.7878294,1.04908112 23.3636758,0.629458055 C22.9395691,0.209741166 22.4372647,0 21.8570909,0 L2.14276835,0 C1.45531306,0 0.926270362,0.232117935 0.555734071,0.696353806 C0.18524469,1.1606835 0,1.74107216 0,2.43747288 C0,2.99998827 0.245616915,3.60955587 0.7366162,4.26580037 C1.22756858,4.92209178 1.75004398,5.43778953 2.3035264,5.81275288 Z" id="Path"></path>
                    <path d="M22.6605085,7.18548896 C19.7322503,9.20208024 17.5087554,10.7693045 15.9911029,11.8868276 C15.4821853,12.2682287 15.0693376,12.5659613 14.7522785,12.7793092 C14.4352194,12.9928003 14.0135528,13.2108256 13.486669,13.4332898 C12.9599728,13.656088 12.4691152,13.767153 12.013674,13.767153 L12.0000235,13.767153 L11.9865605,13.767153 C11.5312132,13.767153 11.0400741,13.656088 10.5133779,13.4332898 C9.9866817,13.2108256 9.56473368,12.9928003 9.24776839,12.7793092 C8.93089692,12.5659613 8.51790855,12.2682287 8.00903783,11.8868276 C6.80361279,10.9875207 4.58490267,9.42020105 1.35281367,7.18548896 C0.843755314,6.8405049 0.392864333,6.44507145 0,6 L0,16.8194124 C0,17.419364 0.209730917,17.9324013 0.629427298,18.3593835 C1.04902986,18.7865089 1.55358494,19 2.14290489,19 L21.8572358,19 C22.4464151,19 22.9509232,18.7865089 23.3705727,18.3593835 C23.7903629,17.9322581 24,17.4194117 24,16.8194124 L24,6 C23.6160015,6.43585978 23.1697076,6.83129323 22.6605085,7.18548896 Z" id="Path"></path>
                </g>
            </g>
        </g>
    </g>
</svg>