<?xml version="1.0" encoding="UTF-8"?>
<svg width="28px" height="34px" viewBox="0 0 28 34" version="1.1" xmlns="http://www.w3.org/2000/svg" xmlns:xlink="http://www.w3.org/1999/xlink">
    <!-- Generator: Sketch 61.2 (89653) - https://sketch.com -->
    <title>placeholder</title>
    <desc>Created with Sketch.</desc>
    <g id="Page-1" stroke="none" stroke-width="1" fill="none" fill-rule="evenodd">
        <g id="Popular_project_inner" transform="translate(-99.000000, -886.000000)" fill-rule="nonzero" stroke="#7B7F8A" stroke-width="2">
            <g id="placeholder" transform="translate(100.000000, 887.000000)">
                <path d="M12.5364967,0.00814456113 C6.06198813,0.231221486 0.683268434,5.19140252 0.0618759728,11.5228505 C-0.0650751752,12.7891401 0.00842285785,14.0160632 0.235598596,15.1904976 L0.235598596,15.1904976 C0.235598596,15.1904976 0.255643514,15.3282804 0.322459908,15.5907239 C0.522909089,16.4699094 0.823582861,17.3228506 1.19775467,18.1233031 C2.50067434,21.1545248 5.5140937,26.2262443 12.2759127,31.7441176 C12.6901744,32.0852941 13.2982036,32.0852941 13.7191468,31.7441176 C20.4809659,26.2328054 23.4943852,21.1610859 24.8039866,18.116742 C25.18484,17.3162895 25.4788321,16.4699094 25.6792813,15.5841628 C25.7394161,15.3282804 25.7661426,15.1839365 25.7661426,15.1839365 L25.7661426,15.1839365 C25.9198203,14.3966062 26,13.5895926 26,12.7628958 C26,5.55882333 19.9263898,-0.247737794 12.5364967,0.00814456113 Z M13,19 C9.68571429,19 7,16.3142857 7,13 C7,9.68571429 9.68571429,7 13,7 C16.3142857,7 19,9.68571429 19,13 C19,16.3142857 16.3142857,19 13,19 Z" id="Shape"></path>
            </g>
        </g>
    </g>
</svg>