<?xml version="1.0" encoding="UTF-8"?>
<svg width="36px" height="38px" viewBox="0 0 36 38" version="1.1" xmlns="http://www.w3.org/2000/svg" xmlns:xlink="http://www.w3.org/1999/xlink">
    <!-- Generator: Sketch 61.2 (89653) - https://sketch.com -->
    <title>search</title>
    <desc>Created with Sketch.</desc>
    <defs>
        <linearGradient x1="50%" y1="0%" x2="50%" y2="100%" id="linearGradient-1">
            <stop stop-color="#00AEEF" offset="0%"></stop>
            <stop stop-color="#4A90E2" offset="100%"></stop>
        </linearGradient>
    </defs>
    <g id="Page-1" stroke="none" stroke-width="1" fill="none" fill-rule="evenodd">
        <g id="Home" transform="translate(-1263.000000, -587.000000)" fill="url(#linearGradient-1)" fill-rule="nonzero">
            <g id="search" transform="translate(1263.000000, 587.000000)">
                <path d="M35.4526436,34.6119791 L26.5780278,25.2057016 C28.8598474,22.4413861 30.1100699,18.9633114 30.1100699,15.342485 C30.1100699,6.88277218 23.3562503,0 15.0550349,0 C6.75381959,0 0,6.88277218 0,15.342485 C0,23.8021978 6.75381959,30.68497 15.0550349,30.68497 C18.1714272,30.68497 21.1411965,29.7270653 23.6802608,27.9086473 L32.622297,37.3863006 C32.9960546,37.7818699 33.4987619,38 34.0374703,38 C34.5473778,38 35.0311026,37.8018818 35.3983146,37.441667 C36.1785581,36.6765439 36.2034316,35.4077871 35.4526436,34.6119791 Z M15.0550349,4.00238739 C21.1909435,4.00238739 26.1826695,9.08942176 26.1826695,15.342485 C26.1826695,21.5955482 21.1909435,26.6825826 15.0550349,26.6825826 C8.91912635,26.6825826 3.92740042,21.5955482 3.92740042,15.342485 C3.92740042,9.08942176 8.91912635,4.00238739 15.0550349,4.00238739 Z" id="Shape"></path>
            </g>
        </g>
    </g>
</svg>