<?xml version="1.0" encoding="UTF-8"?>
<svg width="30px" height="28px" viewBox="0 0 30 28" version="1.1" xmlns="http://www.w3.org/2000/svg" xmlns:xlink="http://www.w3.org/1999/xlink">
    <!-- Generator: Sketch 61.2 (89653) - https://sketch.com -->
    <title>sent-mail</title>
    <desc>Created with Sketch.</desc>
    <g id="Page-1" stroke="none" stroke-width="1" fill="none" fill-rule="evenodd">
        <g id="Home" transform="translate(-597.000000, -2659.000000)" fill="#1A2236" fill-rule="nonzero">
            <g id="Group-15" transform="translate(100.000000, 2479.000000)">
                <g id="sent-mail" transform="translate(497.000000, 180.000000)">
                    <path d="M29.4492943,0.11223092 C29.3175324,-0.00588892236 29.1300217,-0.0332934492 28.9710934,0.0420463887 L0.25602853,13.6784666 C0.101436178,13.7519071 0.00188472051,13.909551 0,14.0837461 C-0.00183186723,14.2579412 0.0944454533,14.4177557 0.247533472,14.4945427 L8.37385257,18.5706721 C8.52287004,18.6454693 8.70055833,18.6285562 8.83364757,18.5268972 L16.7346707,12.4912084 L10.5320397,19.0122196 C10.4435495,19.1052865 10.3984195,19.2327221 10.4081534,19.362057 L11.0257264,27.5824201 C11.0394424,27.7645743 11.1589041,27.9203189 11.3287168,27.977389 C11.3741123,27.9925836 11.4207466,28 11.46685,28 C11.5933025,28 11.7163038,27.9445578 11.8018738,27.8432606 L16.1150624,22.7348035 L21.4470384,25.3386858 C21.5627836,25.3952133 21.6967577,25.3975648 21.8143612,25.3452882 C21.9319647,25.2929211 22.0215167,25.1910812 22.0599215,25.0660876 L29.5796403,0.587694939 C29.6322035,0.416755811 29.5809677,0.230350761 29.4492943,0.11223092 Z" id="Path"></path>
                </g>
            </g>
        </g>
    </g>
</svg>