<?xml version="1.0" encoding="UTF-8"?>
<svg width="24px" height="24px" viewBox="0 0 24 24" version="1.1" xmlns="http://www.w3.org/2000/svg" xmlns:xlink="http://www.w3.org/1999/xlink">
    <!-- Generator: Sketch 61.2 (89653) - https://sketch.com -->
    <title>singapore-dollar</title>
    <desc>Created with Sketch.</desc>
    <g id="Page-1" stroke="none" stroke-width="1" fill="none" fill-rule="evenodd">
        <g id="Home" transform="translate(-318.000000, -2216.000000)" fill="#B2BFCD" fill-rule="nonzero">
            <g id="grp1" transform="translate(100.000000, 1786.000000)">
                <g id="Group-13" transform="translate(218.000000, 430.000000)">
                    <g id="singapore-dollar">
                        <path d="M19.68,11.0185551 L19.68,4.55081502 C20.936976,5.00115458 21.84,6.21376947 21.84,7.63591734 C21.84,8.2384065 22.323552,8.72685619 22.92,8.72685619 C23.516448,8.72685619 24,8.2384065 24,7.63591734 C24,5.00173641 22.141824,2.79782176 19.68,2.29097157 L19.68,1.09093884 C19.68,0.488449685 19.196448,0 18.6,0 C18.003552,0 17.52,0.488449685 17.52,1.09093884 L17.52,2.29097157 C15.058176,2.79774903 13.2,5.00166368 13.2,7.63591734 C13.2,10.270171 15.058176,12.4740129 17.52,12.9808631 L17.52,19.4486031 C16.262952,18.9982636 15.36,17.7856487 15.36,16.3634281 C15.36,15.7609389 14.876448,15.2724892 14.28,15.2724892 C13.683552,15.2724892 13.2,15.7609389 13.2,16.3634281 C13.2,18.997609 15.058176,21.2015964 17.52,21.7083739 L17.52,22.9090612 C17.52,23.5115503 18.003552,24 18.6,24 C19.196448,24 19.68,23.5115503 19.68,22.9090612 L19.68,21.7083739 C22.141824,21.2015237 24,18.9976818 24,16.3634281 C24,13.7291744 22.141824,11.5253325 19.68,11.0185551 Z M15.36,7.63599007 C15.36,6.21376947 16.262952,5.00115458 17.52,4.55088775 L17.52,10.7211651 C16.262952,10.2707528 15.36,9.05813795 15.36,7.63599007 Z M19.68,19.4486031 L19.68,13.2783258 C20.936976,13.7286653 21.84,14.9412802 21.84,16.3634281 C21.84,17.7856487 20.936976,18.9982636 19.68,19.4486031 Z" id="XMLID_232_"></path>
                        <path d="M5.4,4.53333333 C7.186536,4.53333333 8.64,5.96885333 8.64,7.73333333 C8.64,8.32241778 9.123552,8.8 9.72,8.8 C10.316448,8.8 10.8,8.32241778 10.8,7.73333333 C10.8,4.79253333 8.37756,2.4 5.4,2.4 C2.42244,2.4 0,4.79253333 0,7.73333333 C0,10.6741333 2.42244,13.0666667 5.4,13.0666667 C7.186536,13.0666667 8.64,14.5021867 8.64,16.2666667 C8.64,18.0311467 7.186536,19.4666667 5.399928,19.4666667 C3.613392,19.4666667 2.16,18.0311467 2.16,16.2666667 C2.16,15.6775822 1.676448,15.2 1.08,15.2 C0.483552,15.2 0,15.6775822 0,16.2666667 C0,19.2074667 2.422368,21.6 5.399928,21.6 C8.37756,21.6 10.8,19.2074667 10.8,16.2666667 C10.8,13.3258667 8.37756,10.9333333 5.4,10.9333333 C3.613464,10.9333333 2.16,9.49781333 2.16,7.73333333 C2.16,5.96885333 3.613464,4.53333333 5.4,4.53333333 Z" id="XMLID_237_"></path>
                    </g>
                </g>
            </g>
        </g>
    </g>
</svg>