<?xml version="1.0" encoding="UTF-8"?>
<svg width="20px" height="20px" viewBox="0 0 20 20" version="1.1" xmlns="http://www.w3.org/2000/svg" xmlns:xlink="http://www.w3.org/1999/xlink">
    <!-- Generator: Sketch 61.2 (89653) - https://sketch.com -->
    <title>social3</title>
    <desc>Created with Sketch.</desc>
    <defs>
        <linearGradient x1="9.1540625%" y1="90.8465625%" x2="90.8459375%" y2="9.1534375%" id="linearGradient-1">
            <stop stop-color="#FFC107" offset="0%"></stop>
            <stop stop-color="#F44336" offset="50.7%"></stop>
            <stop stop-color="#9C27B0" offset="99%"></stop>
        </linearGradient>
        <linearGradient x1="14.645625%" y1="85.354375%" x2="85.354375%" y2="14.645625%" id="linearGradient-2">
            <stop stop-color="#FFC107" offset="0%"></stop>
            <stop stop-color="#F44336" offset="50.7%"></stop>
            <stop stop-color="#9C27B0" offset="99%"></stop>
        </linearGradient>
        <linearGradient x1="14.6482176%" y1="85.3611632%" x2="85.3517824%" y2="14.6482176%" id="linearGradient-3">
            <stop stop-color="#FFC107" offset="0%"></stop>
            <stop stop-color="#F44336" offset="50.7%"></stop>
            <stop stop-color="#9C27B0" offset="99%"></stop>
        </linearGradient>
    </defs>
    <g id="Page-1" stroke="none" stroke-width="1" fill="none" fill-rule="evenodd">
        <g id="Home" transform="translate(-1233.000000, -2939.000000)" fill-rule="nonzero">
            <g id="Group-16" transform="translate(1190.000000, 2939.000000)">
                <g id="social3" transform="translate(43.000000, 0.000000)">
                    <path d="M13.75,0 L6.25,0 C2.79875,0 0,2.79875 0,6.25 L0,13.75 C0,17.20125 2.79875,20 6.25,20 L13.75,20 C17.20125,20 20,17.20125 20,13.75 L20,6.25 C20,2.79875 17.20125,0 13.75,0 Z M18.125,13.75 C18.125,16.1625 16.1625,18.125 13.75,18.125 L6.25,18.125 C3.8375,18.125 1.875,16.1625 1.875,13.75 L1.875,6.25 C1.875,3.8375 3.8375,1.875 6.25,1.875 L13.75,1.875 C16.1625,1.875 18.125,3.8375 18.125,6.25 L18.125,13.75 Z" id="Shape" fill="url(#linearGradient-1)"></path>
                    <path d="M10.2,5.2 C7.43875,5.2 5.2,7.43875 5.2,10.2 C5.2,12.96125 7.43875,15.2 10.2,15.2 C12.96125,15.2 15.2,12.96125 15.2,10.2 C15.2,7.43875 12.96125,5.2 10.2,5.2 Z M10.2,13.325 C8.4775,13.325 7.075,11.9225 7.075,10.2 C7.075,8.47625 8.4775,7.075 10.2,7.075 C11.9225,7.075 13.325,8.47625 13.325,10.2 C13.325,11.9225 11.9225,13.325 10.2,13.325 Z" id="Shape" fill="url(#linearGradient-2)"></path>
                    <circle id="Oval" fill="url(#linearGradient-3)" cx="15.4" cy="4.6" r="1"></circle>
                </g>
            </g>
        </g>
    </g>
</svg>