<?xml version="1.0" encoding="UTF-8"?>
<svg width="20px" height="20px" viewBox="0 0 20 20" version="1.1" xmlns="http://www.w3.org/2000/svg" xmlns:xlink="http://www.w3.org/1999/xlink">
    <!-- Generator: Sketch 61.2 (89653) - https://sketch.com -->
    <title>social4</title>
    <desc>Created with Sketch.</desc>
    <g id="Page-1" stroke="none" stroke-width="1" fill="none" fill-rule="evenodd">
        <g id="Home" transform="translate(-1319.000000, -2939.000000)" fill="#DC4E41" fill-rule="nonzero">
            <g id="Group-16" transform="translate(1190.000000, 2939.000000)">
                <g id="social4" transform="translate(129.000000, 0.000000)">
                    <path d="M9.8,19.6 C15.2123905,19.6 19.6,15.2123905 19.6,9.8 C19.6,4.38760945 15.2123905,0 9.8,0 C4.38760945,0 0,4.38760945 0,9.8 C0,15.2123905 4.38760945,19.6 9.8,19.6 Z M7.52476306,14.7616861 C4.76038769,14.7616861 2.56307692,12.5643323 2.56307692,9.8 C2.56307692,7.03566769 4.76038769,4.83831384 7.52476306,4.83831384 C8.87152,4.83831384 10.0056061,5.33447384 10.85616,6.18507075 L9.50940306,7.46092306 C9.15500925,7.10652925 8.51708306,6.68123075 7.52472,6.68123075 C5.82361231,6.68123075 4.47685539,8.09884925 4.47685539,9.8 C4.47685539,11.5011508 5.82361231,12.9187692 7.52472,12.9187692 C9.50940306,12.9187692 10.2181908,11.5011508 10.3599569,10.79232 L7.52472,10.79232 L7.52472,9.09116925 L12.2028739,9.09116925 C12.2737784,9.37470156 12.2737784,9.58732925 12.2737784,9.94176613 C12.2737784,12.7770031 10.36,14.7616861 7.52476306,14.7616861 Z M18.1569231,10.5088308 L16.7393046,10.5088308 L16.7393046,11.9264492 L15.3216431,11.9264492 L15.3216431,10.5088308 L13.9040246,10.5088308 L13.9040246,9.09121231 L15.3216431,9.09121231 L15.3216431,7.67359387 L16.7393046,7.67359387 L16.7393046,9.09121231 L18.1569231,9.09121231 L18.1569231,10.5088308 Z" id="Shape"></path>
                </g>
            </g>
        </g>
    </g>
</svg>