<svg xmlns="http://www.w3.org/2000/svg" version="1.1" xmlns:xlink="http://www.w3.org/1999/xlink" xmlns:svgjs="http://svgjs.com/svgjs" width="512" height="512" x="0" y="0" viewBox="0 0 60 60" style="enable-background:new 0 0 512 512" xml:space="preserve" class=""><g><path d="M48.877,1.463A5.035,5.035,0,0,0,45.34,0H18a6.006,6.006,0,0,0-6,6V18.05a17.971,17.971,0,0,0,0,33.9V54a6.006,6.006,0,0,0,6,6H54a6.006,6.006,0,0,0,6-6V14.66a5.035,5.035,0,0,0-1.463-3.537ZM56.586,12H50a2,2,0,0,1-2-2V3.414ZM2,35A16,16,0,1,1,18,51,16.019,16.019,0,0,1,2,35ZM58,54a4,4,0,0,1-4,4H18a4,4,0,0,1-4-4V52.536a18,18,0,1,0,0-35.072V6a4,4,0,0,1,4-4H45.34a2.988,2.988,0,0,1,.66.081V10a4,4,0,0,0,4,4h7.919a2.988,2.988,0,0,1,.081.66Z" fill="#000000" data-original="#000000"></path><path d="M23,5H19a2,2,0,0,0-2,2v4a2,2,0,0,0,2,2h4a2,2,0,0,0,2-2V7A2,2,0,0,0,23,5Zm-4,6V7h4v4Z" fill="#000000" data-original="#000000"></path><path d="M28,8h4a1,1,0,0,0,0-2H28a1,1,0,0,0,0,2Z" fill="#000000" data-original="#000000"></path><path d="M43,6H36a1,1,0,0,0,0,2h7a1,1,0,0,0,0-2Z" fill="#000000" data-original="#000000"></path><path d="M39,10H28a1,1,0,0,0,0,2H39a1,1,0,0,0,0-2Z" fill="#000000" data-original="#000000"></path><path d="M30,30a2.981,2.981,0,0,0-.878-2.121,3.073,3.073,0,0,0-4.243,0L15,37.757l-3.878-3.878a3.075,3.075,0,0,0-4.243,0,3,3,0,0,0,0,4.243l6,6a3,3,0,0,0,4.243,0l12-12A2.982,2.982,0,0,0,30,30Zm-2.293.707-12,12a1.025,1.025,0,0,1-1.414,0l-6-6a1,1,0,1,1,1.414-1.414l4.586,4.585a1,1,0,0,0,1.414,0L26.293,29.292a1.025,1.025,0,0,1,1.414,0,1,1,0,0,1,0,1.414Z" fill="#000000" data-original="#000000"></path></g></svg>
