<svg xmlns="http://www.w3.org/2000/svg" data-name="Layer 1" viewBox="0 0 128 128"><path fill="#34a853" d="M2.77,71.65a2.00386,2.00386,0,0,0-1.54,3.7c4.24,1.76,8.37,3.17,12.37,4.54,3.56,1.22,7.23,2.49,10.94,3.99l10.07,7.01-2.34,3.3a7.04819,7.04819,0,0,0,1.35,9.51l.91.71a6.399,6.399,0,0,0,3.96,1.38,7.72369,7.72369,0,0,0,.95-.07c.11-.02.22-.05.33-.07a6.84271,6.84271,0,0,0,2.47,4.1l1.22.95a6.43113,6.43113,0,0,0,3.96,1.37,6.54674,6.54674,0,0,0,.89-.06,6.92371,6.92371,0,0,0,2.55,4.47,6.43105,6.43105,0,0,0,3.96,1.37,6.07668,6.07668,0,0,0,.95-.07,6.27964,6.27964,0,0,0,2.08-.68,6.62934,6.62934,0,0,0,2.08,2.77l.96.75A6.33924,6.33924,0,0,0,64.85,122a6.16675,6.16675,0,0,0,.95-.07,6.48257,6.48257,0,0,0,4.4-2.73l2.03-2.88.86.59A6.02854,6.02854,0,0,0,76.54,118a6.38813,6.38813,0,0,0,1.22-.12,6.03848,6.03848,0,0,0,3.92-2.75,6.22369,6.22369,0,0,0,.9-2.45l2.26,1.51a6.03876,6.03876,0,0,0,3.44,1.08,6.38259,6.38259,0,0,0,1.22-.12,6.1031,6.1031,0,0,0,3.93-2.74,6.94974,6.94974,0,0,0,.93-2.46l.07.06a6.039,6.039,0,0,0,3.44,1.08,6.38322,6.38322,0,0,0,1.22-.12,6.05826,6.05826,0,0,0,3.93-2.75,6.50134,6.50134,0,0,0-1.57-8.57,6.30648,6.30648,0,0,0,1.57-1.68,6.51651,6.51651,0,0,0-1.49-8.52l1.7-2.26,23.91-16.55a2.00144,2.00144,0,0,0-2.28-3.29l-12.23,8.47L97.73,49.74,127.05,31.7a1.99813,1.99813,0,0,0-2.1-3.4L94.39,47.1a1.80474,1.80474,0,0,0-.38.16,1.87493,1.87493,0,0,0-.41.31995l-9.69,5.96L65.1,50.37a18.966,18.966,0,0,0-11.97,1.42,2.01871,2.01871,0,0,0-.48-.26l-8.38-2.9a1.94748,1.94748,0,0,0-.61-.44C37.68,45.41,30.74,41.42,24.03,37.56,16.81,33.41,9.34,29.11,2.82,26.18a1.99621,1.99621,0,1,0-1.64,3.64c6.34,2.86,13.72,7.1,20.86,11.21,2.13,1.23,4.29,2.46,6.44,3.68L12.82,75.39C9.53,74.26,6.17,73.07,2.77,71.65Zm101.2298,3.34943a2,2,0,1,1-1.99994,2A2,2,0,0,1,103.99982,74.99939ZM40.8894,100.236l-.00378.006-.30969.43835a2.55575,2.55575,0,0,1-1.71967,1.07959,2.44136,2.44136,0,0,1-1.86377-.501l-.90576-.70752a3.0334,3.0334,0,0,1-.54883-4.0498l6.6391-9.39734a2.5514,2.5514,0,0,1,1.71875-1.07861,2.43436,2.43436,0,0,1,1.86426.50049l.90527.707a3.03452,3.03452,0,0,1,.55048,4.04816Zm8.61957,6.73138a2.55562,2.55562,0,0,1-1.71967,1.07959,2.43671,2.43671,0,0,1-1.86377-.501l-1.21973-.95264a3.03405,3.03405,0,0,1-.55048-4.04773l6.32629-8.95459.00378-.006.30969-.43835a2.55574,2.55574,0,0,1,1.71973-1.07959,2.44616,2.44616,0,0,1,1.86377.501l1.21973.95264a3.03392,3.03392,0,0,1,.54932,4.04974Zm9.06586,3.39545c-.057.08069-.10419.16565-.15729.248l-1.50916,2.13623a2.55574,2.55574,0,0,1-1.71973,1.07959,2.43287,2.43287,0,0,1-1.86377-.501,3.03367,3.03367,0,0,1-.54932-4.05029l6.6391-9.39734a2.55378,2.55378,0,0,1,1.71875-1.0791,2.5045,2.5045,0,0,1,.356-.02588A2.43843,2.43843,0,0,1,62.99719,99.3a3.02736,3.02736,0,0,1,.621,3.924Zm13.88763-1.29242L66.93512,116.894a2.55352,2.55352,0,0,1-1.71869,1.0791,2.43441,2.43441,0,0,1-1.86426-.501l-.96143-.751a3.02676,3.02676,0,0,1-.62079-3.92371l5.04407-7.13965c.05682-.08044.10382-.1651.15674-.24725l.39795-.56329a2.55378,2.55378,0,0,1,1.71875-1.0791,2.50449,2.50449,0,0,1,.356-.02588,2.43843,2.43843,0,0,1,1.50781.52686l.9624.75146A3.03341,3.03341,0,0,1,72.46246,109.07043Zm5.8349,3.93256a2.08591,2.08591,0,0,1-1.34766.95508,2.04169,2.04169,0,0,1-1.58246-.335l-.82251-.56824,1.18433-1.67639a6.87143,6.87143,0,0,0,1.04144-2.27472l.86768.59015A2.49728,2.49728,0,0,1,78.29736,113.003ZM64.257,54.27985c.03906.00879.07861.0166.11816.02344l19.09607,3.22314L99.60388,85.36066,98.14,87.29962,69.086,68.228c-2.84369-2.145-5.456-3.02191-7.75336-2.61029a5.4782,5.4782,0,0,0-3.44971,2.08295l-5.32172,6.67084c-2.20215,2.30664-4.19135,3.46484-5.77191,3.34131A3.89754,3.89754,0,0,1,44.01294,75.808a25.864,25.864,0,0,0,2.2876-5.20941l3.08588-9.433C53.57977,51.99176,63.82629,54.18268,64.257,54.27985ZM43.09,52.45l6.1,2.12a16.14632,16.14632,0,0,0-3.49,5.05,1.666,1.666,0,0,0-.08.2L42.48,69.4a21.32633,21.32633,0,0,1-1.89,4.34,3.99152,3.99152,0,0,0,.11,4.34A7.83141,7.83141,0,0,0,46.48,81.7c2.87.22,5.92-1.34,9.04-4.64a.692.692,0,0,0,.11-.13l5.41-6.78a1.08674,1.08674,0,0,0,.13-.17,1.64626,1.64626,0,0,1,.87-.42c.66-.12,2.14-.03,4.68,1.9a.44544.44544,0,0,1,.11.08L97.51,91.67a1.803,1.803,0,0,0,.57.25l.89.61a2.47785,2.47785,0,0,1,.66,3.3,2.01583,2.01583,0,0,1-2.42.88L77.67,83.21l-.03-.02v-.01c-.07-.04-.14-.07-.2-.11a1.08877,1.08877,0,0,0-.15-.08,2.35208,2.35208,0,0,0-.35-.11c-.01,0-.02-.01-.03-.01a2.10155,2.10155,0,0,0-.75-.01H76.15c-.1.02-.2.05-.3.08-.02.01-.05.01-.08.02a2.11479,2.11479,0,0,0-.21.11.82079.82079,0,0,0-.13.07,1.42034,1.42034,0,0,0-.15.11,1.80454,1.80454,0,0,0-.16.13,1.05247,1.05247,0,0,0-.1.12,1.46108,1.46108,0,0,0-.16.19h-.01c-.03.05-.05.1-.06995.14a2.24589,2.24589,0,0,0-.12006.21c-.02.05-.03.11-.05.16-.02.06995-.05.14-.07.22-.00995.06-.00995.12-.02.18a1.22991,1.22991,0,0,0-.02.2c0,.06.01.12.01.18.01.07.01.14.02.2a1.08473,1.08473,0,0,0,.05.17,1.16241,1.16241,0,0,0,.06.2c.02.06.05.1.07.15a1.24521,1.24521,0,0,0,.1.2,1.47113,1.47113,0,0,0,.1.13c.05.06.09.12.14.18.04.04.09.07.13.11.06.05.11.1.18.15L94.43,99.75a6.02948,6.02948,0,0,0,.85.49L98.97,102.79a2.446,2.446,0,0,1,.66,3.3,2.09735,2.09735,0,0,1-1.35.96,2.049,2.049,0,0,1-1.58-.34l-4.33-2.99a4.9871,4.9871,0,0,0-.51-.4,2.157,2.157,0,0,0-.36-.2L71.82,89.53a1.99858,1.99858,0,0,0-2.27,3.29l20.26,13.99a3.04176,3.04176,0,0,1,.23,3.46,2.0436,2.0436,0,0,1-2.96.61L75.74,103.3a6.8179,6.8179,0,0,0-1.36-1.43l-.97-.75a6.38222,6.38222,0,0,0-4.91-1.31,6.183,6.183,0,0,0-.62.13,6.85736,6.85736,0,0,0-2.42-3.79,6.37547,6.37547,0,0,0-4.85-1.31,6.89983,6.89983,0,0,0-2.55-4.47l-1.22-.95a6.36388,6.36388,0,0,0-4.91-1.31c-.11.02-.22.04-.33.07a6.81426,6.81426,0,0,0-2.47-4.1l-.91-.71a6.38667,6.38667,0,0,0-4.91-1.3,6.5043,6.5043,0,0,0-4.4,2.73l-1.99,2.82-8.66-6.03a1.27865,1.27865,0,0,0-.15-.25ZM22.41,72a2.00039,2.00039,0,1,1-2.04,2A2.01474,2.01474,0,0,1,22.41,72Z" class="color000000 svgShape"/><path fill="#34a853" d="M67.00006,45.99963A19.99982,19.99982,0,1,0,47.00024,25.99982,20.02277,20.02277,0,0,0,67.00006,45.99963ZM57.76331,23.55646a1.99977,1.99977,0,0,1,2.80859.335l2.69727,3.42822L73.90143,20.329a1.99968,1.99968,0,1,1,2.1972,3.34174L63.93176,31.67065a1.99944,1.99944,0,0,1-2.67041-.43408l-3.83295-4.87152A2,2,0,0,1,57.76331,23.55646Z" class="color000000 svgShape"/></svg>