<svg width="24" height="24" viewBox="0 0 24 24" fill="none" xmlns="http://www.w3.org/2000/svg">
<path fill-rule="evenodd" clip-rule="evenodd" d="M15.7262 23.3714V14.8519H18.5862L19.0141 11.5321H15.7251V9.41243C15.7251 8.45103 15.9924 7.79543 17.3718 7.79543H19.1296V4.82543C18.2783 4.73484 17.4227 4.69077 16.5666 4.69343C14.0322 4.69343 12.2975 6.24113 12.2975 9.08243V11.5321H9.42866V14.8519H12.2964V23.3714H1.84306C1.17206 23.3714 0.628662 22.828 0.628662 22.157V2.58583C0.628662 1.91483 1.17206 1.37143 1.84306 1.37143H21.4143C22.0853 1.37143 22.6287 1.91483 22.6287 2.58583V22.157C22.6287 22.828 22.0853 23.3714 21.4143 23.3714H15.7262Z" fill="#347BBF"/>
</svg>
