<?xml version="1.0" encoding="utf-8"?>
<svg viewBox="0 0 500 500" xmlns="http://www.w3.org/2000/svg">
  <defs>
    <symbol id="w" overflow="visible">
      <path d="m3.6562-0.21875c-0.1875 0.09375-0.38672 0.16797-0.59375 0.21875-0.19922 0.050781-0.40625 0.078125-0.625 0.078125-0.66797 0-1.1992-0.17969-1.5938-0.54688-0.38672-0.375-0.57812-0.87891-0.57812-1.5156 0-0.64453 0.19141-1.1484 0.57812-1.5156 0.39453-0.375 0.92578-0.5625 1.5938-0.5625 0.21875 0 0.42578 0.027344 0.625 0.078125 0.20703 0.054687 0.40625 0.125 0.59375 0.21875v0.82812c-0.1875-0.125-0.375-0.21875-0.5625-0.28125-0.17969-0.0625-0.37109-0.09375-0.57812-0.09375-0.36719 0-0.65625 0.12109-0.875 0.35938-0.21094 0.23047-0.3125 0.55469-0.3125 0.96875 0 0.40625 0.10156 0.73047 0.3125 0.96875 0.21875 0.23047 0.50781 0.34375 0.875 0.34375 0.20703 0 0.39844-0.023437 0.57812-0.078125 0.1875-0.0625 0.375-0.16016 0.5625-0.29688z"/>
    </symbol>
    <symbol id="d" overflow="visible">
      <path d="m2.6875-2.1719c-0.085938-0.039063-0.16797-0.070313-0.25-0.09375-0.085938-0.019531-0.16797-0.03125-0.25-0.03125-0.25 0-0.44531 0.085937-0.57812 0.25-0.125 0.15625-0.1875 0.38281-0.1875 0.67188v1.375h-0.96875v-2.9844h0.96875v0.48438c0.11328-0.19531 0.25-0.33594 0.40625-0.42188 0.16406-0.09375 0.35938-0.14062 0.57812-0.14062h0.10938c0.039063 0 0.09375 0.007812 0.15625 0.015625z"/>
    </symbol>
    <symbol id="a" overflow="visible">
      <path d="m3.4375-1.5v0.26562h-2.2344c0.03125 0.23047 0.11328 0.40234 0.25 0.51562 0.13281 0.10547 0.32812 0.15625 0.57812 0.15625 0.20703 0 0.41406-0.023438 0.625-0.078125 0.20703-0.0625 0.42188-0.15625 0.64062-0.28125v0.73438c-0.21875 0.09375-0.44531 0.16406-0.67188 0.20312-0.23047 0.039062-0.45312 0.0625-0.67188 0.0625-0.54297 0-0.96484-0.13281-1.2656-0.40625-0.30469-0.28125-0.45312-0.67188-0.45312-1.1719 0-0.47656 0.14453-0.85938 0.4375-1.1406 0.30078-0.28125 0.70703-0.42188 1.2188-0.42188 0.46875 0 0.84375 0.14062 1.125 0.42188s0.42188 0.66406 0.42188 1.1406zm-0.96875-0.32812c0-0.17578-0.058594-0.31641-0.17188-0.42188-0.10547-0.11328-0.24219-0.17188-0.40625-0.17188-0.1875 0-0.33984 0.054687-0.45312 0.15625-0.11719 0.10547-0.1875 0.25-0.21875 0.4375z"/>
    </symbol>
    <symbol id="k" overflow="visible">
      <path d="m1.7969-1.3438c-0.19922 0-0.35156 0.039062-0.45312 0.10938-0.09375 0.0625-0.14062 0.16406-0.14062 0.29688 0 0.11719 0.035156 0.21094 0.10938 0.28125 0.082031 0.0625 0.19531 0.09375 0.34375 0.09375 0.17578 0 0.32812-0.0625 0.45312-0.1875s0.1875-0.28516 0.1875-0.48438v-0.10938zm1.4688-0.35938v1.7031h-0.96875v-0.4375c-0.125 0.17969-0.27344 0.30859-0.4375 0.39062-0.15625 0.082031-0.35156 0.125-0.57812 0.125-0.3125 0-0.57031-0.085938-0.76562-0.26562-0.1875-0.1875-0.28125-0.42188-0.28125-0.70312 0-0.35156 0.11719-0.61328 0.35938-0.78125 0.23828-0.16406 0.61719-0.25 1.1406-0.25h0.5625v-0.0625c0-0.15625-0.0625-0.26562-0.1875-0.32812-0.11719-0.070312-0.29688-0.10938-0.54688-0.10938-0.21094 0-0.40234 0.023437-0.57812 0.0625-0.17969 0.042969-0.33984 0.10156-0.48438 0.17188v-0.71875c0.19531-0.050781 0.39844-0.085938 0.60938-0.10938 0.20703-0.03125 0.41406-0.046875 0.625-0.046875 0.53906 0 0.92969 0.10938 1.1719 0.32812 0.23828 0.21094 0.35938 0.55469 0.35938 1.0312z"/>
    </symbol>
    <symbol id="c" overflow="visible">
      <path d="m1.5-3.8438v0.85938h0.98438v0.67188h-0.98438v1.2812c0 0.13672 0.023438 0.23047 0.078125 0.28125 0.0625 0.042969 0.17578 0.0625 0.34375 0.0625h0.48438v0.6875h-0.8125c-0.38672 0-0.65625-0.078125-0.8125-0.23438s-0.23438-0.42188-0.23438-0.79688v-1.2812h-0.46875v-0.67188h0.46875v-0.85938z"/>
    </symbol>
    <symbol id="j" overflow="visible">
      <path d="m2.5-2.5469v-1.6094h0.95312v4.1562h-0.95312v-0.4375c-0.13672 0.17969-0.28125 0.30859-0.4375 0.39062-0.15625 0.082031-0.33984 0.125-0.54688 0.125-0.375 0-0.68359-0.14453-0.92188-0.4375-0.23047-0.28906-0.34375-0.67188-0.34375-1.1406 0-0.45703 0.11328-0.83203 0.34375-1.125 0.23828-0.28906 0.54688-0.4375 0.92188-0.4375 0.19531 0 0.375 0.042969 0.53125 0.125 0.16406 0.085938 0.31641 0.21484 0.45312 0.39062zm-0.64062 1.9375c0.20703 0 0.36328-0.070313 0.46875-0.21875 0.11328-0.15625 0.17188-0.37891 0.17188-0.67188 0-0.28125-0.058594-0.49219-0.17188-0.64062-0.10547-0.15625-0.26172-0.23438-0.46875-0.23438-0.19922 0-0.35547 0.078125-0.46875 0.23438-0.10547 0.14844-0.15625 0.35938-0.15625 0.64062 0 0.29297 0.050781 0.51562 0.15625 0.67188 0.11328 0.14844 0.26953 0.21875 0.46875 0.21875z"/>
    </symbol>
    <symbol id="i" overflow="visible">
      <path d="m2.0469-0.60938c0.20703 0 0.36328-0.070313 0.46875-0.21875 0.11328-0.15625 0.17188-0.37891 0.17188-0.67188 0-0.28125-0.058594-0.49219-0.17188-0.64062-0.10547-0.15625-0.26172-0.23438-0.46875-0.23438-0.19922 0-0.35547 0.078125-0.46875 0.23438-0.10547 0.14844-0.15625 0.35938-0.15625 0.64062 0 0.29297 0.050781 0.51562 0.15625 0.67188 0.11328 0.14844 0.26953 0.21875 0.46875 0.21875zm-0.625-1.9375c0.125-0.17578 0.26562-0.30469 0.42188-0.39062 0.16406-0.082031 0.35156-0.125 0.5625-0.125 0.36328 0 0.66406 0.14844 0.90625 0.4375 0.23828 0.29297 0.35938 0.66797 0.35938 1.125 0 0.46875-0.12109 0.85156-0.35938 1.1406-0.24219 0.29297-0.54297 0.4375-0.90625 0.4375-0.21094 0-0.39844-0.042969-0.5625-0.125-0.15625-0.082031-0.29688-0.21094-0.42188-0.39062v0.4375h-0.96875v-4.1562h0.96875z"/>
    </symbol>
    <symbol id="h" overflow="visible">
      <path d="m0.0625-2.9844h0.95312l0.8125 2.0156 0.6875-2.0156h0.95312l-1.2656 3.2656c-0.125 0.33203-0.27344 0.56641-0.4375 0.70312-0.16797 0.13281-0.39062 0.20312-0.67188 0.20312h-0.54688v-0.64062h0.29688c0.16406 0 0.28516-0.027344 0.35938-0.078125 0.070313-0.054688 0.12891-0.14062 0.17188-0.26562l0.03125-0.09375z"/>
    </symbol>
    <symbol id="g" overflow="visible">
      <path d="m0.5-3.9844h1.0312v3.9844h-1.0312z"/>
    </symbol>
    <symbol id="f" overflow="visible">
      <path d="m2.875-2.8906v0.76562c-0.125-0.082031-0.25781-0.14453-0.39062-0.1875-0.13672-0.039062-0.27344-0.0625-0.40625-0.0625-0.27344 0-0.48047 0.078125-0.625 0.23438-0.14844 0.15625-0.21875 0.37109-0.21875 0.64062 0 0.28125 0.070313 0.5 0.21875 0.65625 0.14453 0.15625 0.35156 0.23438 0.625 0.23438 0.14453 0 0.28516-0.019531 0.42188-0.0625 0.13281-0.039063 0.25781-0.10938 0.375-0.20312v0.78125c-0.14844 0.0625-0.29688 0.10156-0.45312 0.125-0.15625 0.03125-0.3125 0.046875-0.46875 0.046875-0.54297 0-0.96484-0.13281-1.2656-0.40625-0.30469-0.28125-0.45312-0.67188-0.45312-1.1719 0-0.48828 0.14844-0.86719 0.45312-1.1406 0.30078-0.28125 0.72266-0.42188 1.2656-0.42188 0.15625 0 0.3125 0.015625 0.46875 0.046875 0.15625 0.023437 0.30469 0.0625 0.45312 0.125z"/>
    </symbol>
    <symbol id="b" overflow="visible">
      <path d="m1.875-2.375c-0.21094 0-0.37109 0.078125-0.48438 0.23438-0.10547 0.14844-0.15625 0.35938-0.15625 0.64062 0 0.29297 0.050781 0.51562 0.15625 0.67188 0.11328 0.14844 0.27344 0.21875 0.48438 0.21875 0.20703 0 0.36719-0.070313 0.48438-0.21875 0.11328-0.15625 0.17188-0.37891 0.17188-0.67188 0-0.28125-0.058594-0.49219-0.17188-0.64062-0.11719-0.15625-0.27734-0.23438-0.48438-0.23438zm0-0.6875c0.51953 0 0.92188 0.14062 1.2031 0.42188 0.28906 0.27344 0.4375 0.65234 0.4375 1.1406 0 0.5-0.14844 0.89062-0.4375 1.1719-0.28125 0.27344-0.68359 0.40625-1.2031 0.40625-0.51172 0-0.91406-0.13281-1.2031-0.40625-0.29297-0.28125-0.4375-0.67188-0.4375-1.1719 0-0.48828 0.14453-0.86719 0.4375-1.1406 0.28906-0.28125 0.69141-0.42188 1.2031-0.42188z"/>
    </symbol>
    <symbol id="e" overflow="visible">
      <path d="m3.4688-1.8281v1.8281h-0.96875v-1.3906c0-0.25781-0.007812-0.4375-0.015625-0.53125-0.011719-0.10156-0.03125-0.17578-0.0625-0.21875-0.03125-0.0625-0.085937-0.10938-0.15625-0.14062-0.0625-0.039062-0.13281-0.0625-0.20312-0.0625-0.21094 0-0.37109 0.078125-0.48438 0.23438-0.10547 0.15625-0.15625 0.37109-0.15625 0.64062v1.4688h-0.96875v-2.9844h0.96875v0.4375c0.13281-0.17578 0.28516-0.30469 0.45312-0.39062 0.16406-0.082031 0.34375-0.125 0.53125-0.125 0.34375 0 0.60156 0.10938 0.78125 0.32812 0.1875 0.21094 0.28125 0.51172 0.28125 0.90625z"/>
    </symbol>
    <symbol id="v" overflow="visible">
      <path d="m2.5-0.5c-0.13672 0.16797-0.28125 0.29297-0.4375 0.375-0.15625 0.085938-0.33984 0.125-0.54688 0.125-0.36719 0-0.66797-0.14062-0.90625-0.42188-0.24219-0.28906-0.35938-0.66016-0.35938-1.1094 0-0.44531 0.11719-0.8125 0.35938-1.0938 0.23828-0.28906 0.53906-0.4375 0.90625-0.4375 0.20703 0 0.39062 0.042969 0.54688 0.125 0.15625 0.085938 0.30078 0.21484 0.4375 0.39062v-0.4375h0.95312v2.6875c0 0.47656-0.15234 0.84375-0.45312 1.0938-0.30469 0.25781-0.74609 0.39062-1.3281 0.39062-0.17969 0-0.35547-0.015625-0.53125-0.046875-0.17969-0.03125-0.35547-0.078125-0.53125-0.14062v-0.73438c0.16406 0.09375 0.32812 0.16016 0.48438 0.20312 0.16406 0.050781 0.33203 0.078125 0.5 0.078125 0.3125 0 0.53906-0.070313 0.6875-0.20312 0.14453-0.13672 0.21875-0.34766 0.21875-0.64062zm-0.64062-1.875c-0.19922 0-0.35547 0.074219-0.46875 0.21875-0.10547 0.14844-0.15625 0.35547-0.15625 0.625 0 0.27344 0.050781 0.48047 0.15625 0.625 0.11328 0.14844 0.26953 0.21875 0.46875 0.21875 0.19531 0 0.35156-0.070312 0.46875-0.21875 0.11328-0.14453 0.17188-0.35156 0.17188-0.625 0-0.26953-0.058594-0.47656-0.17188-0.625-0.11719-0.14453-0.27344-0.21875-0.46875-0.21875z"/>
    </symbol>
    <symbol id="u" overflow="visible">
      <path d="m0.45312-4.1562h0.96875v2.2656l1.0938-1.0938h1.1094l-1.4531 1.3594 1.5625 1.625h-1.1562l-1.1562-1.25v1.25h-0.96875z"/>
    </symbol>
    <symbol id="t" overflow="visible">
      <path d="m1.5781-0.75h1.75v0.75h-2.8906v-0.75l1.4531-1.2969c0.125-0.11328 0.21875-0.22266 0.28125-0.32812 0.0625-0.11328 0.09375-0.23438 0.09375-0.35938 0-0.1875-0.0625-0.33594-0.1875-0.45312-0.125-0.11328-0.29297-0.17188-0.5-0.17188-0.15625 0-0.33594 0.039063-0.53125 0.10938-0.1875 0.0625-0.39062 0.16406-0.60938 0.29688v-0.875c0.23828-0.070313 0.46875-0.12891 0.6875-0.17188 0.22656-0.039062 0.45312-0.0625 0.67188-0.0625 0.47656 0 0.84766 0.10938 1.1094 0.32812 0.25781 0.21094 0.39062 0.5 0.39062 0.875 0 0.21094-0.058594 0.41406-0.17188 0.60938-0.10547 0.1875-0.33984 0.4375-0.70312 0.75z"/>
    </symbol>
    <symbol id="s" overflow="visible">
      <path d="m1.9844-1.9688c-0.1875 0-0.32812 0.058594-0.42188 0.17188-0.085938 0.11719-0.125 0.29297-0.125 0.53125 0 0.23047 0.039062 0.40625 0.125 0.53125 0.09375 0.11719 0.23438 0.17188 0.42188 0.17188 0.17578 0 0.30469-0.054688 0.39062-0.17188 0.09375-0.125 0.14062-0.30078 0.14062-0.53125 0-0.23828-0.046875-0.41406-0.14062-0.53125-0.085938-0.11328-0.21484-0.17188-0.39062-0.17188zm1.2656-1.9062v0.73438c-0.16797-0.082031-0.32812-0.14062-0.48438-0.17188-0.14844-0.039062-0.29297-0.0625-0.4375-0.0625-0.30469 0-0.54297 0.085938-0.71875 0.25-0.16797 0.16797-0.26562 0.41797-0.29688 0.75 0.125-0.082031 0.25391-0.14453 0.39062-0.1875 0.13281-0.039062 0.28516-0.0625 0.45312-0.0625 0.40625 0 0.73438 0.12109 0.98438 0.35938 0.25 0.23047 0.375 0.54297 0.375 0.9375 0 0.42969-0.14062 0.77344-0.42188 1.0312-0.28125 0.25-0.65625 0.375-1.125 0.375-0.52344 0-0.92188-0.17188-1.2031-0.51562-0.28125-0.35156-0.42188-0.85156-0.42188-1.5 0-0.65625 0.16016-1.1719 0.48438-1.5469 0.33203-0.375 0.78906-0.5625 1.375-0.5625 0.1875 0 0.36328 0.015625 0.53125 0.046875 0.17578 0.023438 0.34766 0.0625 0.51562 0.125z"/>
    </symbol>
    <symbol id="r" overflow="visible">
      <path d="m2.4219-4.1562v0.625h-0.51562c-0.13672 0-0.23438 0.027344-0.29688 0.078125-0.054687 0.054687-0.078125 0.13672-0.078125 0.25v0.21875h0.82812v0.67188h-0.82812v2.3125h-0.95312v-2.3125h-0.46875v-0.67188h0.46875v-0.21875c0-0.32031 0.085937-0.5625 0.26562-0.71875 0.1875-0.15625 0.47266-0.23438 0.85938-0.23438z"/>
    </symbol>
    <symbol id="q" overflow="visible">
      <path d="m3.2344-2.5c0.11328-0.17578 0.25391-0.3125 0.42188-0.40625 0.16406-0.10156 0.35156-0.15625 0.5625-0.15625 0.33203 0 0.58594 0.10938 0.76562 0.32812 0.1875 0.21094 0.28125 0.51172 0.28125 0.90625v1.8281h-0.96875v-1.5625c0.007813-0.019531 0.015625-0.039062 0.015625-0.0625v-0.10938c0-0.21875-0.03125-0.375-0.09375-0.46875s-0.16406-0.14062-0.29688-0.14062c-0.1875 0-0.33594 0.078125-0.4375 0.23438-0.09375 0.14844-0.14062 0.35938-0.14062 0.64062v1.4688h-0.96875v-1.5625c0-0.33203-0.03125-0.54688-0.09375-0.64062-0.054688-0.09375-0.15234-0.14062-0.29688-0.14062-0.17969 0-0.32031 0.078125-0.42188 0.23438-0.09375 0.14844-0.14062 0.35938-0.14062 0.64062v1.4688h-0.96875v-2.9844h0.96875v0.4375c0.11328-0.17578 0.24219-0.30469 0.39062-0.39062 0.15625-0.082031 0.32812-0.125 0.51562-0.125 0.20703 0 0.39062 0.054688 0.54688 0.15625 0.15625 0.09375 0.27344 0.23047 0.35938 0.40625z"/>
    </symbol>
    <symbol id="p" overflow="visible">
      <path d="m3.4688-1.8281v1.8281h-0.96875v-1.3906c0-0.25781-0.007812-0.4375-0.015625-0.53125-0.011719-0.10156-0.03125-0.17578-0.0625-0.21875-0.03125-0.0625-0.085937-0.10938-0.15625-0.14062-0.0625-0.039062-0.13281-0.0625-0.20312-0.0625-0.21094 0-0.37109 0.078125-0.48438 0.23438-0.10547 0.15625-0.15625 0.37109-0.15625 0.64062v1.4688h-0.96875v-4.1562h0.96875v1.6094c0.13281-0.17578 0.28516-0.30469 0.45312-0.39062 0.16406-0.082031 0.34375-0.125 0.53125-0.125 0.34375 0 0.60156 0.10938 0.78125 0.32812 0.1875 0.21094 0.28125 0.51172 0.28125 0.90625z"/>
    </symbol>
    <symbol id="o" overflow="visible">
      <path d="m0.5-3.9844h1.1562l1.4375 2.7344v-2.7344h0.98438v3.9844h-1.1562l-1.4375-2.7344v2.7344h-0.98438z"/>
    </symbol>
    <symbol id="n" overflow="visible">
      <path d="m0.42188-1.1719v-1.8125h0.96875v0.29688 0.60938 0.48438c0 0.24219 0.003906 0.41797 0.015625 0.53125 0.007812 0.10547 0.03125 0.17969 0.0625 0.21875 0.039062 0.0625 0.09375 0.11719 0.15625 0.15625 0.0625 0.03125 0.13281 0.046875 0.21875 0.046875 0.19531 0 0.35156-0.078125 0.46875-0.23438 0.11328-0.15625 0.17188-0.36719 0.17188-0.64062v-1.4688h0.95312v2.9844h-0.95312v-0.4375c-0.14844 0.17969-0.30469 0.30859-0.46875 0.39062-0.15625 0.082031-0.33594 0.125-0.53125 0.125-0.34375 0-0.60938-0.10156-0.79688-0.3125-0.17969-0.21875-0.26562-0.53125-0.26562-0.9375z"/>
    </symbol>
    <symbol id="m" overflow="visible">
      <path d="m0.5-3.9844h1.7031c0.50781 0 0.89844 0.11719 1.1719 0.34375 0.26953 0.21875 0.40625 0.53906 0.40625 0.95312 0 0.41797-0.13672 0.74219-0.40625 0.96875-0.27344 0.21875-0.66406 0.32812-1.1719 0.32812h-0.67188v1.3906h-1.0312zm1.0312 0.75v1.1094h0.5625c0.19531 0 0.34766-0.046875 0.45312-0.14062 0.11328-0.10156 0.17188-0.24219 0.17188-0.42188 0-0.17578-0.058594-0.3125-0.17188-0.40625-0.10547-0.09375-0.25781-0.14062-0.45312-0.14062z"/>
    </symbol>
    <symbol id="l" overflow="visible">
      <path d="m0.45312-2.9844h0.96875v2.9375c0 0.39453-0.10156 0.69531-0.29688 0.90625-0.1875 0.21875-0.46484 0.32812-0.82812 0.32812h-0.48438v-0.64062h0.17188c0.17578 0 0.29688-0.042969 0.35938-0.125 0.070312-0.074219 0.10938-0.23047 0.10938-0.46875zm0-1.1719h0.96875v0.78125h-0.96875z"/>
    </symbol>
  </defs>
  <g transform="matrix(0.925326, 0, 0, 0.925326, -78.908508, -9.07282)" style="">
    <path d="m125.52 329.37c6.0391 17.758 17.598 33.113 32.988 43.828l55.051 37.93c0.13281 0.09375 0.27344 0.18359 0.41406 0.26562 3.625 2.1602 6.2969 5.6133 7.4844 9.6602l9.2109 40.875v0.003906c0.19141 0.85938 0.53516 1.6797 1.0078 2.4258l-9.9336 7.6016c-1.8945 1.4492-3.0039 3.6992-3.0039 6.082v64.457c0 2.8164 1.5469 5.4062 4.0312 6.7422 2.4805 1.3359 5.4961 1.1992 7.8438-0.35547l101.93-67.344h0.003907c2.1445-1.418 3.4336-3.8164 3.4336-6.3867v-75.113c0-2.9141-1.6523-5.5742-4.2656-6.8633-2.6094-1.293-5.7266-0.98828-8.043 0.78125l-9.75 7.4609c-0.19922-1.2109-0.33594-2.4297-0.41016-3.6523l-0.84375-14.559c-0.011718-0.20703-0.035156-0.41797-0.0625-0.625v-0.003907c-2.0312-14.648-8.0781-28.449-17.473-39.875-9.3906-11.426-21.762-20.027-35.742-24.859l-4.7344-1.6484v0.003906c-6.3125-2.207-12.047-5.8047-16.781-10.523l-22.699-22.699-7.7422-26.199h0.003906c-1.9297-7.1328-5.9219-13.539-11.48-18.414-5.5547-4.8711-12.426-7.9961-19.75-8.9766l-0.96875-3.2305c-0.019531-0.0625-0.039063-0.12109-0.058594-0.18359-3.7695-11.523-15.969-19.098-28.664-18.832l-0.007813-0.03125c-2.4922-8.3828-8.125-15.484-15.723-19.816-7.5977-4.3359-16.578-5.5742-25.062-3.4531-3.9336 0.97656-6.4219 4.8477-5.6836 8.8281l25.211 135.65c0.066406 0.35547 0.15625 0.70703 0.27344 1.0469zm195.14 141.66-86.613 57.227v-46.438l86.613-66.281zm-128-210.21c0.015626 0.066406 0.035157 0.13281 0.054688 0.19922l1.5273 5.1641c-2.4883-1.0547-5.0781-1.8555-7.7266-2.3906l-5.0742-16.926c5.5352 2.8672 9.6094 7.9297 11.219 13.953zm-32.062-30.16 9.9297 33.133c-2.2148 0.44922-4.3906 1.082-6.5 1.8945l-12.781-42.734c4.3594 1.1172 8.0859 3.9531 9.3516 7.707zm-28.766-19.164 17.621 58.91 1.1875 3.8281c-0.17578 0.16797-0.35938 0.32812-0.53516 0.50781-1.4766 1.4766-2.2891 3.4961-2.2383 5.5859 0.046875 2.0898 0.94531 4.0703 2.4883 5.4805l27.582 25.191c7.9531 7.2656 15.227 15.242 21.73 23.832 2.5508 3.3711 7.3516 4.0391 10.723 1.4844 3.375-2.5508 4.0391-7.3516 1.4883-10.723-7.0664-9.3359-14.973-18.004-23.613-25.898l-20.672-18.883c4.6562-2.2734 9.9062-3.0352 15.016-2.1836 5.1133 0.85547 9.8281 3.2812 13.496 6.9375l30.934 30.934c6.3711 6.3516 14.086 11.191 22.578 14.16l4.7344 1.6484h-0.003907c11.27 3.8906 21.25 10.812 28.844 20.004 7.5938 9.1953 12.508 20.301 14.199 32.105l0.82422 14.234h0.003906c0.25391 4.3867 1.0859 8.7188 2.4727 12.887l-56.023 42.875-8.3242-36.945c-0.03125-0.13281-0.066406-0.26562-0.10156-0.39844h-0.003906c-2.1914-7.7969-7.2578-14.477-14.184-18.68l-54.844-37.793c-12.535-8.7305-21.992-21.199-27.016-35.625l-23.531-126.63c3.5195 0.51953 6.8164 2.0352 9.5039 4.3633 2.6875 2.332 4.6523 5.3789 5.668 8.7891z"/>
    <path d="m594.28 183.84c-8.4844-2.1211-17.461-0.88281-25.059 3.4492-7.6016 4.3359-13.234 11.434-15.727 19.82l-0.011719 0.03125c-12.699-0.26172-24.891 7.3086-28.664 18.832-0.019531 0.0625-0.039062 0.12109-0.058594 0.18359l-0.96875 3.2305h0.003907c-7.3242 0.98047-14.195 4.1055-19.75 8.9766-5.5547 4.875-9.5469 11.281-11.477 18.414l-7.7422 26.199-22.699 22.699h0.003906c-4.7344 4.7188-10.469 8.3164-16.781 10.523l-4.7344 1.6406c-13.98 4.8281-26.352 13.434-35.742 24.859-9.3945 11.422-15.441 25.227-17.473 39.875-0.027344 0.20703-0.050782 0.41797-0.0625 0.625l-0.84375 14.559c-0.074219 1.2266-0.21094 2.4453-0.41016 3.6562l-9.75-7.4609c-2.3164-1.7695-5.4336-2.0742-8.043-0.78516-2.6133 1.2891-4.2656 3.9531-4.2656 6.8633v75.113c0 2.5703 1.2891 4.9727 3.4336 6.3867l101.93 67.344 0.003907 0.003906c2.3477 1.5508 5.3633 1.6875 7.8438 0.35547s4.0312-3.9219 4.0312-6.7383v-64.457c0-2.3828-1.1094-4.6328-3.0039-6.082l-9.9336-7.6016c0.47266-0.74609 0.81641-1.5664 1.0078-2.4258l9.2109-40.875v-0.003906c1.1875-4.0469 3.8594-7.5 7.4844-9.6602 0.14062-0.082031 0.27734-0.17188 0.41406-0.26562l55.07-37.941h-0.003907c15.383-10.715 26.938-26.066 32.973-43.816 0.11719-0.33984 0.20703-0.69141 0.27344-1.0469l25.207-135.65v-0.003906c0.73828-3.9805-1.75-7.8516-5.6836-8.8281zm-54.883 46.82c1.2656-3.75 4.9922-6.5898 9.3516-7.7031l-12.781 42.734 0.003906-0.003906c-2.1094-0.8125-4.2852-1.4453-6.5-1.8945zm-32.062 30.164 0.003907-0.003906c1.6094-6.0234 5.6836-11.086 11.219-13.953l-5.0742 16.926c-2.6484 0.53516-5.2383 1.3359-7.7266 2.3906l1.5312-5.1641c0.019532-0.0625 0.035156-0.13281 0.050782-0.19922zm-41.387 267.44-86.609-57.23v-55.492l86.613 66.281zm93.859-203.29c-5.0234 14.418-14.473 26.883-27 35.613l-54.863 37.801c-6.9258 4.207-11.992 10.883-14.184 18.68-0.039062 0.13281-0.070312 0.26563-0.10156 0.39844l-8.3281 36.945-56.023-42.875c1.3867-4.168 2.2148-8.5 2.4727-12.887l0.82422-14.234c1.6953-11.805 6.6094-22.91 14.203-32.102 7.5938-9.1953 17.57-16.117 28.84-20.008l4.7305-1.6406h0.003906c8.4922-2.9688 16.207-7.8086 22.574-14.16l30.938-30.938c3.668-3.6562 8.3867-6.082 13.496-6.9375 5.1094-0.85156 10.359-0.089843 15.016 2.1836l-20.672 18.883c-8.6406 7.8945-16.543 16.562-23.609 25.898-1.2266 1.6172-1.7578 3.6562-1.4805 5.668s1.3438 3.832 2.9648 5.0547c3.3711 2.5547 8.1719 1.8867 10.727-1.4844 6.5-8.5898 13.773-16.566 21.727-23.832l27.578-25.191h0.003906c1.543-1.4102 2.4414-3.3906 2.4883-5.4805 0.046875-2.0898-0.76172-4.1094-2.2383-5.5859-0.17578-0.17578-0.35547-0.33594-0.53516-0.50781l1.2031-3.8984 17.602-58.844c1.0156-3.4102 2.9805-6.457 5.668-8.7891 2.6875-2.3281 5.9844-3.8438 9.5-4.3633z"/>
    <path d="m391.07 85.363c4.2305 0 7.6562-3.4258 7.6562-7.6562 0-4.2266-3.4258-7.6562-7.6562-7.6562h-82.141c-4.2266 0-7.6562 3.4297-7.6562 7.6562 0 4.2305 3.4297 7.6562 7.6562 7.6562h23.504c5.9805 0.007813 11.793 1.957 16.57 5.5508 4.7773 3.5898 8.2578 8.6367 9.9258 14.379h-49.992c-4.2305 0-7.6562 3.4258-7.6562 7.6562 0 4.2266 3.4258 7.6562 7.6562 7.6562h50-0.003906c-1.6641 5.7383-5.1484 10.785-9.9258 14.379s-10.59 5.5391-16.57 5.5469h-23.5c-3.1367 0-5.957 1.9141-7.1172 4.8281-1.1562 2.9141-0.42188 6.2383 1.8594 8.3945l58.742 55.512c3.0742 2.8906 7.9102 2.75 10.812-0.32031 2.8984-3.0664 2.7656-7.9062-0.29688-10.812l-44.75-42.289h4.2539-0.003906c10.047-0.015625 19.766-3.5469 27.477-9.9844 7.707-6.4375 12.918-15.375 14.723-25.254h16.434c4.2305 0 7.6562-3.4297 7.6562-7.6562 0-4.2305-3.4258-7.6562-7.6562-7.6562h-16.434c-1.332-7.3477-4.5664-14.219-9.3789-19.93z"/>
    <path d="m480.86 140.7c0.003906-34.711-13.781-68.004-38.324-92.555-24.543-24.547-57.836-38.34-92.547-38.34-34.711 0-68.004 13.789-92.551 38.332-24.543 24.547-38.332 57.84-38.332 92.551 0 34.715 13.793 68.004 38.34 92.547 24.551 24.543 57.844 38.328 92.555 38.324 34.695-0.039062 67.957-13.84 92.488-38.371s38.332-57.793 38.371-92.488zm-130.86 115.55c-30.645 0-60.035-12.172-81.703-33.844-21.672-21.668-33.844-51.059-33.844-81.703s12.172-60.035 33.844-81.703c21.668-21.672 51.059-33.844 81.703-33.844s60.035 12.172 81.703 33.844c21.672 21.668 33.844 51.059 33.844 81.703-0.011719 30.641-12.188 60.027-33.855 81.691-21.664 21.668-51.051 33.844-81.691 33.855z"/>
  </g>
</svg>