<svg xmlns="http://www.w3.org/2000/svg" version="1.1" xmlns:xlink="http://www.w3.org/1999/xlink" xmlns:svgjs="http://svgjs.com/svgjs" width="512" height="512" x="0" y="0" viewBox="0 0 511.958 511.958" style="enable-background:new 0 0 512 512" xml:space="preserve" class=""><g><g><path d="m124.828 150.344v-14.312c0-4.142-3.358-7.5-7.5-7.5s-7.5 3.358-7.5 7.5v14.312c0 4.142 3.358 7.5 7.5 7.5s7.5-3.358 7.5-7.5z" fill="#000000" data-original="#000000"></path><path d="m193.196 157.844c4.142 0 7.5-3.358 7.5-7.5v-14.312c0-4.142-3.358-7.5-7.5-7.5s-7.5 3.358-7.5 7.5v14.312c0 4.142 3.358 7.5 7.5 7.5z" fill="#000000" data-original="#000000"></path><path d="m402.909 127.82h-5.96c-4.142 0-7.5 3.358-7.5 7.5v13.862c0 4.142 3.358 7.5 7.5 7.5s7.5-3.358 7.5-7.5v-6.52c3.403-.71 5.96-3.728 5.96-7.342 0-4.142-3.358-7.5-7.5-7.5z" fill="#000000" data-original="#000000"></path><path d="m323.462 156.682c4.142 0 7.5-3.358 7.5-7.5v-13.862c0-4.142-3.358-7.5-7.5-7.5h-5.96c-4.142 0-7.5 3.358-7.5 7.5 0 3.614 2.557 6.631 5.96 7.342v6.52c0 4.142 3.358 7.5 7.5 7.5z" fill="#000000" data-original="#000000"></path><path d="m108.8 395.033c12.72 0 23.068-10.349 23.068-23.068 0-4.142-3.358-7.5-7.5-7.5s-7.5 3.358-7.5 7.5c0 4.449-3.62 8.068-8.068 8.068-4.449 0-8.069-3.62-8.069-8.068 0-4.142-3.358-7.5-7.5-7.5s-7.5 3.358-7.5 7.5c0 12.72 10.349 23.068 23.069 23.068z" fill="#000000" data-original="#000000"></path><path d="m73.018 328.05c-4.142 0-7.5 3.358-7.5 7.5v13.5c0 4.142 3.358 7.5 7.5 7.5s7.5-3.358 7.5-7.5v-13.5c0-4.142-3.358-7.5-7.5-7.5z" fill="#000000" data-original="#000000"></path><path d="m144.582 356.55c4.142 0 7.5-3.358 7.5-7.5v-13.5c0-4.142-3.358-7.5-7.5-7.5s-7.5 3.358-7.5 7.5v13.5c0 4.142 3.358 7.5 7.5 7.5z" fill="#000000" data-original="#000000"></path><path d="m415.29 364.216c-4.142 0-7.5 3.358-7.5 7.5 0 4.806-3.91 8.716-8.716 8.716s-8.716-3.91-8.716-8.716c0-4.142-3.358-7.5-7.5-7.5s-7.5 3.358-7.5 7.5c0 13.077 10.639 23.716 23.716 23.716s23.716-10.639 23.716-23.716c0-4.142-3.358-7.5-7.5-7.5z" fill="#000000" data-original="#000000"></path><path d="m442.39 326.287h-6.045c-4.142 0-7.5 3.358-7.5 7.5v14.061c0 4.142 3.358 7.5 7.5 7.5s7.5-3.358 7.5-7.5v-6.702c3.446-.677 6.045-3.714 6.045-7.359 0-4.142-3.358-7.5-7.5-7.5z" fill="#000000" data-original="#000000"></path><path d="m361.803 326.287h-6.045c-4.142 0-7.5 3.358-7.5 7.5 0 3.645 2.599 6.682 6.045 7.359v6.702c0 4.142 3.358 7.5 7.5 7.5s7.5-3.358 7.5-7.5v-14.061c0-4.142-3.358-7.5-7.5-7.5z" fill="#000000" data-original="#000000"></path><path d="m255.958 444.031c12.139 0 22.014-9.875 22.014-22.014 0-4.142-3.358-7.5-7.5-7.5s-7.5 3.358-7.5 7.5c0 3.868-3.146 7.014-7.014 7.014s-7.015-3.146-7.015-7.014c0-4.142-3.358-7.5-7.5-7.5s-7.5 3.358-7.5 7.5c0 12.139 9.876 22.014 22.015 22.014z" fill="#000000" data-original="#000000"></path><path d="m222.598 408.154c4.142 0 7.5-3.358 7.5-7.5v-12.585c0-4.142-3.358-7.5-7.5-7.5s-7.5 3.358-7.5 7.5v12.585c0 4.142 3.358 7.5 7.5 7.5z" fill="#000000" data-original="#000000"></path><path d="m289.317 408.154c4.142 0 7.5-3.358 7.5-7.5v-12.585c0-4.142-3.358-7.5-7.5-7.5s-7.5 3.358-7.5 7.5v12.585c0 4.142 3.358 7.5 7.5 7.5z" fill="#000000" data-original="#000000"></path><path d="m502.313 355.112c4.109-5.553 6.546-12.415 6.546-19.838 0-11.857-6.11-22.264-15.417-28.197v-28.937c0-29.78-18.507-55.303-44.615-65.719 2.86-3.595 5.296-7.561 7.229-11.801 3.455-7.578 5.281-16.027 5.281-24.434 0-2.946-.222-5.914-.658-8.82l-1.184-7.88c5.606-5.927 9.049-13.919 9.049-22.701 0-12.366-6.825-23.167-16.905-28.837l-3.513-23.389c-.001-.006-.002-.012-.003-.018l-1.289-8.581c-2.485-16.548-12.716-30.949-26.966-38.222-4.488-8.189-11.058-15.002-19.132-19.808-3.561-2.12-8.163-.95-10.281 2.609-2.119 3.56-.95 8.163 2.609 10.281 6.324 3.764 11.353 9.25 14.543 15.865.778 1.613 2.107 2.894 3.748 3.612 10.865 4.756 18.776 15.444 20.646 27.891l.895 5.955c-4.401-8.059-8.928-13.11-9.726-14.111-.059-.069-.115-.14-.174-.209-3.965-4.611-11.478-2.825-12.958 3.044-1.29 5.118-3.519 9.813-6.449 13.885-.017.024-.036.047-.054.071-7.516 10.397-19.714 16.927-33.176 16.927-17.119 0-82.211 0-91.367 0v-23.29c0-30.242 24.604-54.846 54.846-54.846h29.198c4.142 0 7.5-3.358 7.5-7.5s-3.358-7.5-7.5-7.5h-29.198c-38.513 0-69.846 31.333-69.846 69.846v30.706c-1.779 1.453-3.404 3.083-4.842 4.872-.977-1.186-2.035-2.301-3.161-3.344.1-.488.152-.993.152-1.51v-56.673c-.003-30.057-24.457-54.511-54.514-54.511h-60.219c-29.518 0-54.063 21.667-58.588 49.93-15.686.046-28.434 12.82-28.434 28.516v34.391c-6.597 6.187-10.729 14.972-10.729 24.709 0 16.946 12.504 31.028 28.77 33.503 2.967 12.309 8.646 23.719 16.561 33.495h-4.678c-16.823 0-32.29 9.81-39.608 24.762-15.947 5.696-26.506 21.789-24.993 38.952l3.42 38.785c-11.745 4.869-20.03 16.451-20.03 29.935 0 16.099 11.804 29.492 27.212 31.979 5.593 22.987 20.724 41.695 40.728 52.221v1.729c0 2.086.177 4.13.502 6.125h-14.509c-20.016 0-36.3 16.284-36.3 36.3v39.057c0 4.142 3.358 7.5 7.5 7.5h18.78c4.142 0 7.5-3.358 7.5-7.5s-3.358-7.5-7.5-7.5h-11.28v-31.557c0-11.745 9.555-21.3 21.3-21.3h20.442c5.478 8.184 13.836 13.815 23.354 15.872 14.902 3.254 30.707-2.703 39.522-15.872h20.217c11.745 0 21.3 9.555 21.3 21.3v5.471c-6.254 3.353-11.004 9.15-12.975 16.106-.004.015-.008.029-.013.044-1.132 4.021-.99 6.919-.99 9.936h-85.877c-4.142 0-7.5 3.358-7.5 7.5s3.358 7.5 7.5 7.5h92.404c.32.042.643.07.974.07h161.135c.331 0 .654-.029.974-.07h142.142c4.142 0 7.5-3.358 7.5-7.5v-39.057c0-6.832-1.9-13.228-5.195-18.691 4.02-2.652 7.718-5.915 10.926-9.711 10.511-12.441 15.42-29.396 13.467-46.517zm-27.747-1.43c-3.475-.089-6.545 2.231-7.434 5.55-.062.231-.114.466-.154.706-3.731 22.311-18.279 41.555-39.271 51.173-.001 0-.002.001-.003.001-10.462 4.793-21.459 6.672-32.11 6.144-.338-.017-.672-.047-1.009-.069-15.734-1.01-30.138-7.306-41.414-17.419 4.473-12.332.534-26.255-9.725-34.464 0-31.126 2.037-46.189-9.245-66.289.514-1.452 1.072-2.848 1.496-3.848h8.532c10.473 13.384 26.728 21.706 44.601 21.706h87.494c9.844.466 17.536 8.522 17.536 18.401-.001 10.271-8.223 18.642-19.294 18.408zm-75.375 94.953c-11.756 0-21.594-8.484-23.711-19.621-.002-.011-.004-.023-.006-.034 7.718 2.25 15.788 3.366 23.6 3.366 7.61 0 15.936-1.094 23.848-3.448-2.095 11.271-11.98 19.737-23.731 19.737zm-72.431-13.229c-.807-.451-1.598-.941-2.373-1.464 2.165-4.543 3.908-9.347 5.155-14.375 5.285-.9 10.705-3.324 15.137-7.272 4.767 4.084 9.924 7.567 15.375 10.444 0 1.942-.025 3.826.26 6.293h-13.008c-7.472-.001-14.665 2.327-20.546 6.374zm-66.967-277.171c.443.519.905 1.021 1.379 1.512-1.186 7.893-1.803 11.022-1.803 16.439 0 8.407 1.827 16.855 5.282 24.434 5.205 11.416 13.895 20.456 24.328 25.979-2.672 1.792-5.204 3.83-7.554 6.119-8.186 7.975-13.489 18.171-15.342 29.257h-6.883c-5.526 0-11.009.671-16.334 1.954-2.73-20.945-17.678-38.097-37.444-44.043 16.19-11.784 27.9-29.028 32.676-48.835 8.793-1.34 16.482-6.074 21.695-12.816zm19.988 11.212c4.671 19.13 16.128 36.391 33.037 48.186-21.723-.103-42.092-20.489-37.769-49.29 1.521.475 3.348.886 4.732 1.104zm24.062 166.921c-8.621 0-16.346 4.462-20.665 11.936-2.67 4.622-3.683 9.798-3.035 14.836-5.198-2.41-10.438-7.027-14.393-11.144-4.954-5.158-13.732-1.049-12.854 6.108.096.782.217 1.526.351 2.253.214 1.168.468 2.274.76 3.308-5.788-2.269-11.367-7.185-15.674-11.669-2.153-2.242-5.638-3-8.628-1.579-2.916 1.386-4.618 4.482-4.225 7.687.205 1.671.502 3.212.864 4.638-9.257-4.677-19.117-16.195-23.646-23.012-1.441-2.177-3.917-3.455-6.516-3.357-4.162.145-6.792 2.474-11.343 14.737-.381 1.026-.819 2.273-1.159 3.338 0-19.677-1.043-27.482 4.622-39.034 0-.001.001-.001.001-.002 5.431-11.073 15.669-20.337 29.08-23.932.086-.023.171-.046.257-.068 5.735-1.501 3.766.16 8.809-3.601 3.607-2.683 7.694-5.035 12.193-6.853.092-.037.174-.09.264-.131 6.377-2.54 13.216-3.852 20.296-3.852h11.804c.538 0 1.07.026 1.604.041.014 0 .028.003.042.003 20.072.565 37.607 11.476 47.425 27.568.031.051.061.101.092.152 9.932 16.391 8.279 29.529 8.279 50.387-.149-.484-.303-.966-.461-1.446-3.207-9.708-11.936-16.429-22.095-17.231-.678-.054-1.361-.081-2.049-.081zm-99.721-87.589c-.008-.035-.016-.07-.024-.104-1.222-5.294-3.2-10.388-5.905-15.184 16.678 3.599 29.341 18.122 30.101 35.677-3.787 1.868-8.097 4.555-11.322 6.999-3.973.809-7.782 2.008-11.404 3.531-.001-19.13.371-22.975-1.446-30.919zm114.412-16.146h21.461c-1.063 1.745-2.038 3.561-2.908 5.449-13.631 7.064-23.849 19.721-29.264 33.955-7.871-4.652-17.004-7.97-26.628-9.332 3.691-17.332 18.933-30.072 37.339-30.072zm-146.279 159.938c-2.056-9.717 5.297-18.806 15.105-18.964.299-.005.597-.007.895.005 3.797.169 7.078-2.528 7.701-6.257.51-3.048 1.248-6.038 2.209-8.953 9.412 10.86 25.715 25.376 42.531 20.421 1.662-.489 3.085-1.532 4.051-2.93 7.382 3.829 15.324 5.3 23.367 2.93 1.668-.491 3.095-1.541 4.061-2.945 7.56 3.908 14.844 4.93 21.574 2.945 4.681-1.379 6.815-6.797 4.346-10.995-1.835-3.124-4.897-6.883-1.931-12.02 4.134-7.151 14.989-5.186 17.563 2.537 1.953 6.163 2.066 8.511 2.379 9.695 1.697 6.433 8.862 5.571 7.554 5.571 9.9 0 16.348 7.087 16.348 15.689 0 8.175-6.286 14.908-14.257 15.634-2.119.195-2.951-.203-4.878.472-2.514.882-4.451 3.073-4.914 5.841-1.229 7.353-3.785 14.348-7.598 20.791-.102.173-.17.356-.257.534-6.23 10.374-15.42 18.629-26.352 23.716-.166.062-.334.116-.496.19-8.012 3.67-16.656 5.494-25.296 5.494-.001 0-.002 0-.003 0-8.451 0-17.014-1.732-25.112-5.407-.134-.061-.274-.103-.411-.156-17.8-8.178-31.058-24.715-34.478-45.163-.607-3.627-3.746-6.263-7.394-6.263-.102 0-.205.002-.308.006-.212.008-.426.018-.641.018-7.538.001-13.848-5.34-15.358-12.436zm63.367 81.65c6.689 1.843 13.541 2.752 20.336 2.752 6.985 0 13.853-.944 20.559-2.814-1.796 9.767-10.361 17.02-20.454 17.02-10.087-.001-18.626-7.25-20.441-16.958zm79.328-25.312c-2.515 4.935-3.943 10.514-3.943 16.422v2.351h-18.521c8.646-4.73 16.272-11.118 22.464-18.773zm163.491-170.769v23.733h-1.956-87.656c-14.073 0-26.777-7.017-34.357-18.106-.059-.096-.105-.198-.169-.292-2.702-4.009-4.663-8.392-5.83-13.027-1.487-5.905-9.011-7.646-12.958-3.063-4.669 5.424-8.64 11.479-11.632 17.53-1.04-1.112-2.601-2.653-3.431-3.429 4.191-14.215 13.508-25.643 25.5-31.036 1.783-.802 3.182-2.268 3.899-4.085 3.068-7.769 8.566-14.386 16.565-19.053.002.001.004-.001.006-.003.002 0 .003 0 .004-.002.279-.158.568-.31.934-.505h.001c9.316-4.658 14.552-4.402 21.277-4.402h.01 34.052c.115 0 .231.008.346.008 30.433.186 55.395 24.994 55.395 55.732zm-58.784-70.741c9.678-9.966 17.095-22.643 20.802-37.298.055-.22.123-.434.177-.654 1.717-.27 3.387-.68 5.006-1.204 2.586 17.213-3.449 31.081-13.264 39.829-5.553-.768-9.879-.673-12.721-.673zm15.083-52.572c-1.054-.042-2.069.145-3.003.508-2.402.932-4.243 3.065-4.692 5.748-2.534 15.152-10.379 29.389-22.27 39.778-.05.044-.092.094-.141.139-2.701 2.339-5.601 4.481-8.686 6.398-11.255 0-13.369-.114-17.724.443-.047.006-.095.01-.143.016-.011.001-.021.004-.032.006-8.767 1.152-16.933 4.442-23.885 9.449-30.675-2.744-55.775-26.191-60.799-56.23-.607-3.626-3.746-6.263-7.394-6.263-4.277 0-7.59-.649-11.186-3.1-4.776-3.254-7.92-8.733-7.92-14.935 0-9.679 7.534-17.574 17.18-18.034h86.31c20.617 0 39.063-11.206 48.767-28.504 1.739 3.052 3.222 6.238 4.465 9.518 1.556 4.106 2.727 8.362 3.456 12.723.078.464.197.911.353 1.338.006.017.009.024.009.023 1.103 2.996 4.028 5.019 7.332 4.896 10.103-.4 18.804 7.69 18.804 18.041.003 10.146-8.437 18.455-18.801 18.042zm-293.332-139.827h60.219c21.787 0 39.512 17.725 39.512 39.511v49.173c-106.027 0-101.061.131-104.701-.286-.178-.02-.353-.046-.53-.068-22.664-2.875-39.638-22.58-38.802-45.519l.004-.107c.001-.016-.001-.032-.001-.049.891-23.67 20.414-42.655 44.299-42.655zm-72.022 63.447c0-7.261 5.754-13.204 12.942-13.506.33 3.514 1.138 7.82 2.263 11.543-5.363 7.954-9.75 17.619-12.159 27.554-1.027.155-2.043.356-3.046.604zm16.632 84.225c-.624-3.726-3.916-6.402-7.695-6.257-.258.01-.516.021-.776.021-10.416 0-18.89-8.474-18.89-18.89 0-6.437 3.242-12.125 8.173-15.537 3.499-2.422 7.547-3.49 11.483-3.331 3.794.156 7.082-2.527 7.705-6.257 1.083-6.476 3.189-13.173 6.398-19.631 9.223 13.427 23.922 23.065 41.122 25.356.334.045.668.088 1.004.128 5.1.59-.986.41 97.362.41h1.613c10.165.289 18.35 8.628 18.35 18.862 0 10.416-8.474 18.89-18.89 18.89-.26 0-.519-.011-.776-.021-3.775-.144-7.072 2.531-7.695 6.257-3.975 23.77-19.915 43.754-42.013 53.048-9.371-6.942-21.266-11.175-33.857-11.175h-38.785c-12.671-10.752-21.099-25.525-23.833-41.873zm-34.063 80.1c2.39-.582 4.343-2.298 5.227-4.594 4.289-11.146 15.191-18.634 27.128-18.634h22.866 41.46c22.811 0 41.627 18.419 41.916 41.409.002.174.013.346.013.521v27.302c-5.388 4.454-9.96 9.814-13.511 15.835h-79.275c-17.724 0-33.76-11.166-39.905-27.785-2.092-5.655-9.455-6.52-12.963-1.993-3.267 4.215-6.241 9.045-8.388 13.334l-1.872-21.226c-.982-11.14 6.457-21.53 17.304-24.169zm-8.052 117.836c-.607-3.626-3.747-6.263-7.394-6.263-.103 0-.206.002-.309.006-.235.009-.471.019-.708.019-9.59 0-17.393-7.802-17.393-17.393 0-8.674 6.39-15.865 14.706-17.163 3.739-.581 5.523.482 8.428-1.884 1.376-1.117 2.358-2.719 2.67-4.583 1.102-6.591 3.234-12.999 6.282-18.96 10.561 15.482 28.341 25.223 47.595 25.223h72.97c-2.672 9.973-2.07 14.792-2.07 45.524-8.643 6.785-13.168 17.836-11.39 29.01-12.275 13.39-29.79 21.328-48.489 21.328-31.69.002-59.494-22.547-64.898-54.864zm64.897 69.866c9.351 0 16.366-1.49 22.568-3.201-.638 3.286-1.982 6.323-3.866 8.948-.009.012-.018.024-.027.036-4.389 6.086-11.328 9.524-18.563 9.524-7.313 0-14.189-3.496-18.524-9.473-.014-.02-.03-.039-.044-.06-1.879-2.608-3.223-5.626-3.87-8.892 6.921 1.971 14.527 3.118 22.326 3.118zm51.768-1.443h-14.284c.326-1.995.502-4.039.502-6.125v-1.902c6.17-3.29 11.923-7.392 17.107-12.235 4.581 5.572 11.077 9.512 18.477 10.79 5.209 21.012 18.914 38.195 37.06 48.122h-22.563v-2.351c.001-20.015-16.283-36.299-36.299-36.299zm22.322 67.927v-2.859c0-5.111 3.463-9.66 8.435-11.003.018-.005.033-.014.051-.018.937-.25 1.917-.396 2.931-.396h28.115c2.023 5.565 5.358 10.435 9.608 14.276zm106.813-14.276h27.905c.118 0 .232.014.348.018.066.005.13.016.197.019 6.16.29 10.872 5.375 10.872 11.38v2.859h-48.93c4.25-3.841 7.585-8.711 9.608-14.276zm182.438 14.206h-128.116v-2.789c0-11.348-7.284-21.43-18.019-25.041v-3.728c0-11.808 9.667-21.3 21.3-21.3h17.975c7.324 12.692 21.284 20.263 35.604 19.561.284-.012.567-.03.85-.049.054-.004.104-.006.159-.01 13.541-1.024 24.901-8.567 31.208-19.502h17.74c11.65 0 21.3 9.526 21.3 21.3v31.558zm9.273-69.64c-2.867 3.394-6.248 6.189-9.927 8.228-11.019-7.641-20.059-6.444-33.419-6.444.01-.087.013-.175.023-.262.274-2.513.238-4.119.238-6.181 20.065-10.63 35.098-28.997 41.38-51.046.012-.042.024-.084.036-.126.292-1.03.571-2.065.824-3.109 2.758-.427 5.401-1.2 7.895-2.26l2.973 26.064c1.463 12.84-2.283 25.975-10.023 35.136z" fill="#000000" data-original="#000000"></path><path d="m387.084 167.065c-3.298 2.506-3.961 7.183-1.456 10.481.961 1.319 2.68 4.738 1.851 6.888-1.894 4.916 1.748 10.199 6.997 10.199 3.011 0 5.852-1.827 7-4.805 4.03-10.458-3.043-20.222-3.862-21.301-2.506-3.298-7.232-3.967-10.53-1.462z" fill="#000000" data-original="#000000"></path><path d="m333.059 167.093c-3.298-2.505-8.002-1.863-10.509 1.435-.819 1.079-7.892 10.843-3.862 21.301 1.148 2.979 3.988 4.806 7 4.805 5.25 0 8.891-5.284 6.997-10.199-.827-2.146.882-5.556 1.845-6.88 2.463-3.296 1.812-7.968-1.471-10.462z" fill="#000000" data-original="#000000"></path><path d="m372.31 168.276c-4.142 0-7.5 3.358-7.5 7.5 0 2.796-2.274 5.07-5.07 5.07s-5.071-2.274-5.071-5.07c0-4.142-3.358-7.5-7.5-7.5s-7.5 3.358-7.5 7.5c0 11.067 9.004 20.07 20.071 20.07s20.07-9.003 20.07-20.07c0-4.142-3.358-7.5-7.5-7.5z" fill="#000000" data-original="#000000"></path><path d="m182.659 184.113c-1.895 4.917 1.748 10.199 6.997 10.199 3.011 0 5.852-1.827 7-4.805 4.031-10.458-3.042-20.223-3.861-21.302-2.505-3.298-7.231-3.968-10.53-1.462-3.298 2.505-3.961 7.183-1.456 10.481.961 1.319 2.679 4.738 1.85 6.889z" fill="#000000" data-original="#000000"></path><path d="m128.24 166.771c-3.297-2.504-8.002-1.863-10.509 1.435-.819 1.079-7.893 10.844-3.862 21.302 1.147 2.978 3.988 4.805 7 4.805 5.25 0 8.891-5.284 6.997-10.199-.827-2.146.882-5.554 1.845-6.879 2.463-3.297 1.811-7.97-1.471-10.464z" fill="#000000" data-original="#000000"></path><path d="m174.99 175.454c0-4.142-3.358-7.5-7.5-7.5s-7.5 3.358-7.5 7.5c0 2.796-2.274 5.071-5.07 5.071s-5.071-2.275-5.071-5.071c0-4.142-3.358-7.5-7.5-7.5s-7.5 3.358-7.5 7.5c0 11.067 9.004 20.071 20.071 20.071s20.07-9.004 20.07-20.071z" fill="#000000" data-original="#000000"></path></g></g></svg>
