<svg xmlns="http://www.w3.org/2000/svg" version="1.1" xmlns:xlink="http://www.w3.org/1999/xlink" xmlns:svgjs="http://svgjs.com/svgjs" width="512" height="512" x="0" y="0" viewBox="0 0 512 512" style="enable-background:new 0 0 512 512" xml:space="preserve" class=""><g><g id="Outline"><path d="M496,424V352H480v32H456V200a8,8,0,0,0-8-8H352a8,8,0,0,0-8,8V384H304v16H480v16H304v16H488A8,8,0,0,0,496,424Zm-56-40H360V208h80ZM80,272H64V240H80Zm232,64V208H264V192h56a8,8,0,0,1,8,8V344a8,8,0,0,1-8,8H304V336ZM471.761,22.06A8,8,0,0,0,464,16H64a8,8,0,0,0-7.761,6.06s-23.991,95.963-24,96A8.135,8.135,0,0,0,32,119.929C32,119.953,32,288,32,288H48V167.978A39.788,39.788,0,0,0,72,176V160a24.027,24.027,0,0,1-24-24v-8H80V112H50.246l20-80h40.31L100.109,94.685l15.782,2.63L126.777,32h40.529l-5.275,63.336,15.944,1.328L183.361,32H224V88h16V32h48v80H256v16h32v8a24.008,24.008,0,0,1-35.994,20.794l-8.012,13.849A39.985,39.985,0,0,0,296,159.972a39.958,39.958,0,0,0,64,0,39.958,39.958,0,0,0,64,0,39.94,39.94,0,0,0,56,8.006V336h16s0-216.046,0-216.07a8.05,8.05,0,0,0-.235-1.87ZM304,32h40.639l6.667,80H304Zm48,104a24,24,0,0,1-48,0v-8h48Zm8.694-104h40.529l13.333,80H367.361ZM416,136a24,24,0,0,1-48,0v-8h48Zm8.11-64-6.666-40h40.31l20,80H430.777ZM480,136a24,24,0,0,1-48,0v-8h48ZM424,320H408V272h16ZM48.64,329.592l-15.68-3.184A48.317,48.317,0,0,0,32,336V456a40.045,40.045,0,0,0,40,40H248a40.045,40.045,0,0,0,40-40V336a48.055,48.055,0,0,0-48-48H200v-4.125A72.324,72.324,0,0,0,231.542,232H232a24,24,0,0,0,0-48s-.041-25.834-.1-26.749A31.865,31.865,0,0,0,240,136V112a8,8,0,0,0-8-8H128a40.045,40.045,0,0,0-40,40v40a24,24,0,0,0,0,48h.458A72.328,72.328,0,0,0,120,283.875V288H80a47.631,47.631,0,0,0-38.4,19.192L54.4,316.8A31.766,31.766,0,0,1,80,304h40v32a8,8,0,0,0,9.94,7.761L152,338.246v63.373l-48-8.348V344H88v16H48V336A32.255,32.255,0,0,1,48.64,329.592ZM232,200a8,8,0,0,1,0,16ZM88,216a8,8,0,0,1,0-16ZM248,480H232.929l-38-8.941,30-7.059h45.7A24.038,24.038,0,0,1,248,480Zm24-88H232V376h40Zm-32-88a32.036,32.036,0,0,1,32,32v24H232V344H216v49.271l-48,8.348V338.246l22.06,5.515A8,8,0,0,0,200,336V304Zm-64.352,19.666L184,315.313v10.441ZM216,171.118l-2.193-3.656c.739-.136,1.472-.288,2.193-.475ZM104,160V144a24.027,24.027,0,0,1,24-24h96v16a16.019,16.019,0,0,1-16,16H120a8,8,0,0,0-6.86,3.884L104,171.118Zm0,64V202.216L124.529,168h70.942L216,202.216V224a56,56,0,1,1-112,0Zm32,101.754V315.313l8.352,8.353Zm0-33.067v-.8a72.087,72.087,0,0,0,48,0v.8l-24,24ZM224.69,408H272v40H224a7.97,7.97,0,0,0-1.833.213L87.072,480H72a24.027,24.027,0,0,1-24-24V438.729ZM95.309,408l18,3.13L48,422.489V408ZM88,376v16H48V376Zm48-16v16H120V360Zm24-104.706a51.2,51.2,0,0,1-28.438-8.638l8.876-13.312a35.174,35.174,0,0,0,39.124,0l8.876,13.312A51.2,51.2,0,0,1,160,255.294ZM132,216a12,12,0,1,1,12-12A12.013,12.013,0,0,1,132,216Zm44-12a12,12,0,1,1,12,12A12.013,12.013,0,0,1,176,204Z" fill="#000000" data-original="#000000" class=""></path></g></g></svg>
