<svg xmlns="http://www.w3.org/2000/svg" width="24" height="24" viewBox="0 0 24 24"><path style="line-height:normal;font-variant-ligatures:normal;font-variant-position:normal;font-variant-caps:normal;font-variant-numeric:normal;font-variant-alternates:normal;font-variant-east-asian:normal;font-feature-settings:normal;font-variation-settings:normal;text-indent:0;text-align:start;text-decoration-line:none;text-decoration-style:solid;text-decoration-color:#000;text-transform:none;text-orientation:mixed;white-space:normal;shape-padding:0;shape-margin:0;inline-size:0;isolation:auto;mix-blend-mode:normal;solid-color:#000;solid-opacity:1" d="m 210.77734,41.994141 c -4.83937,-10e-6 -8.7832,3.945796 -8.7832,8.785156 0,4.83936 3.94383,8.783203 8.7832,8.783203 2.06067,0 3.95411,-0.721186 5.45508,-1.916016 l 4.06055,4.060547 c 0.39051,0.39042 1.02355,0.39042 1.41406,0 0.39042,-0.39051 0.39042,-1.023552 0,-1.414062 l -4.05859,-4.058594 c 1.1948,-1.50042 1.91406,-3.394828 1.91406,-5.455078 1e-5,-4.83936 -3.9458,-8.785156 -8.78516,-8.785156 z m 0,4.283203 a 1,1 0 0 1 1,1 v 2.5 h 2.5 a 1,1 0 0 1 1,1 1,1 0 0 1 -1,1 h -2.5 v 2.5 a 1,1 0 0 1 -1,1 1,1 0 0 1 -1,-1 v -2.5 h -2.5 a 1,1 0 0 1 -1,-1 1,1 0 0 1 1,-1 h 2.5 v -2.5 a 1,1 0 0 1 1,-1 z" color="#000" enable-background="accumulate" font-family="sans-serif" font-weight="400" overflow="visible" transform="translate(-199.997 -39.997)"/></svg>