<svg xmlns="http://www.w3.org/2000/svg" width="24" height="24" viewBox="0 0 24 24"><path style="line-height:normal;font-variant-ligatures:normal;font-variant-position:normal;font-variant-caps:normal;font-variant-numeric:normal;font-variant-alternates:normal;font-variant-east-asian:normal;font-feature-settings:normal;font-variation-settings:normal;text-indent:0;text-align:start;text-decoration-line:none;text-decoration-style:solid;text-decoration-color:#000;text-transform:none;text-orientation:mixed;white-space:normal;shape-padding:0;shape-margin:0;inline-size:0;isolation:auto;mix-blend-mode:normal;solid-color:#000;solid-opacity:1" d="m 10.777344,41.994141 c -4.8393606,0 -8.7832034,3.943843 -8.7832034,8.783203 0,4.83936 3.9438429,8.783203 8.7832034,8.783203 2.06034,0 3.954218,-0.719583 5.455078,-1.914063 l 4.060547,4.060547 c 0.39051,0.39042 1.023552,0.39042 1.414062,0 0.39042,-0.39051 0.39042,-1.023552 0,-1.414062 l -4.060547,-4.060547 c 1.19524,-1.50057 1.916016,-3.394398 1.916016,-5.455078 0,-4.83936 -3.945786,-8.783203 -8.785156,-8.783203 z m -3.5000002,7.783203 h 7.0000002 a 1,1 0 0 1 1,1 1,1 0 0 1 -1,1 H 7.2773438 a 1,1 0 0 1 -1,-1 1,1 0 0 1 1,-1 z" color="#000" enable-background="accumulate" font-family="sans-serif" font-weight="400" overflow="visible" transform="translate(.003 -39.997)"/></svg>